<svg width="100" height="100" viewBox="0 0 100 100" fill="none" xmlns="http://www.w3.org/2000/svg">
<g id="adobe 1" clip-path="url(#clip0)">
<path id="Vector" d="M2.0834 0H97.9168C99.0672 0 100 0.932813 100 2.0834V97.9168C100 99.0674 99.0672 100 97.9166 100H2.0834C0.932813 100 0 99.0672 0 97.9166V2.0834C0 0.932813 0.932813 0 2.0834 0Z" fill="#FFC107"/>
<path id="Vector_2" d="M10.4167 8.33343H89.5833C90.7338 8.33343 91.6667 9.26624 91.6667 10.4168V89.5834C91.6667 90.734 90.7338 91.6668 89.5833 91.6668H10.4167C9.26606 91.6668 8.33325 90.734 8.33325 89.5834V10.4166C8.33345 9.26604 9.26606 8.33343 10.4167 8.33343Z" fill="#5D4037"/>
<g id="Group">
<path id="Vector_3" d="M56.2499 70.8334C55.3536 70.8326 54.5581 70.2588 54.2749 69.4084L43.7499 37.8375L33.2249 69.4084C32.8199 70.4854 31.6185 71.0301 30.5415 70.625C29.522 70.2416 28.9699 69.1373 29.2749 68.0916L41.7749 30.5916C42.2669 29.5008 43.5501 29.0154 44.6409 29.5076C45.1224 29.7248 45.5077 30.1104 45.7249 30.5916L58.2249 68.0916C58.5886 69.1832 57.9984 70.3629 56.9068 70.7266C56.6949 70.7971 56.4732 70.8332 56.2499 70.8334Z" fill="#FFC107"/>
<path id="Vector_4" d="M52.0833 58.3334H35.4166C34.2661 58.3334 33.3333 57.4006 33.3333 56.25C33.3333 55.0994 34.2661 54.1666 35.4166 54.1666H52.0833C53.2338 54.1666 54.1667 55.0994 54.1667 56.25C54.1665 57.4006 53.2338 58.3334 52.0833 58.3334Z" fill="#FFC107"/>
<path id="Vector_5" d="M68.7499 70.8334C67.5993 70.8334 66.6665 69.9006 66.6665 68.75V39.5834C66.6665 38.4328 67.5993 37.5 68.7499 37.5C69.9005 37.5 70.8333 38.4328 70.8333 39.5834V68.75C70.8333 69.9006 69.9005 70.8334 68.7499 70.8334Z" fill="#FFC107"/>
<path id="Vector_6" d="M68.7499 33.3334C69.9005 33.3334 70.8333 32.4006 70.8333 31.25C70.8333 30.0993 69.9005 29.1666 68.7499 29.1666C67.5993 29.1666 66.6665 30.0993 66.6665 31.25C66.6665 32.4006 67.5993 33.3334 68.7499 33.3334Z" fill="#FFC107"/>
</g>
</g>
<defs>
<clipPath id="clip0">
<rect width="100" height="100" fill="white"/>
</clipPath>
</defs>
</svg>
