<svg width="76" height="96" viewBox="0 0 76 96" fill="none" xmlns="http://www.w3.org/2000/svg">
<g id="angular 1">
<path id="Vector" d="M76 40C76 42.4195 75.7953 44.7886 75.4045 47.089C72.2264 65.7992 56.6882 80 38 80C23.9198 80 11.628 71.9395 5.06409 59.9626C3.46186 57.0418 2.20251 53.8891 1.34009 50.5634C0.465351 47.1984 0 43.6555 0 40C0 17.9086 17.0132 0 38 0C55.3218 0 69.9355 12.1992 74.5125 28.8816C75.4805 32.4114 76 36.1421 76 40Z" fill="#343435"/>
<path id="Vector_2" d="M7.62378 18.711L37.5033 8.16406L68.1872 18.5235L63.2191 57.6883L37.5033 71.7979L12.1897 57.8757L7.62378 18.711Z" fill="#E23237"/>
<path id="Vector_3" d="M68.187 18.5235L37.5031 8.16406V71.7979L63.2189 57.7117L68.187 18.5235Z" fill="#B52E31"/>
<path id="Vector_4" d="M37.5506 15.5937L18.9321 56.6334L25.8875 56.5163L29.6253 47.2582H37.5743H37.598H46.3277L50.4204 56.6334L57.0682 56.7506L37.5506 15.5937ZM37.598 28.7424L43.891 41.7739H37.8583H37.5506H32.0622L37.598 28.7424Z" fill="white"/>
<path id="Vector_5" d="M71.44 80C71.44 88.8366 64.6348 96 56.24 96C47.8452 96 41.04 88.8366 41.04 80C41.04 71.1634 47.8452 64 56.24 64C64.6348 64 71.44 71.1634 71.44 80Z" fill="#08BB0F"/>
<path id="Vector_6" d="M63.9608 74.6794L53.1655 86.641L47.12 79.9904L49.5813 77.3109L53.1655 81.2344L61.4995 72L63.9608 74.6794Z" fill="#D4E1F4"/>
</g>
</svg>
