<svg width="79" height="96" viewBox="0 0 79 96" fill="none" xmlns="http://www.w3.org/2000/svg">
<g id="apple 1">
<g id="apple">
<path id="Ellipse 23" d="M39.5 80C61.3153 80 79 62.0914 79 40C79 17.9086 61.3153 0 39.5 0C17.6848 0 0 17.9086 0 40C0 62.0914 17.6848 80 39.5 80Z" fill="#5D5E60"/>
<g id="Group">
<path id="Vector" d="M18.2462 30.445C13.3427 37.4869 16.4599 48.1731 21.8824 54.6526C24.5891 57.8922 27.3295 60.8 31.0829 60.8C31.1536 60.8 31.2247 60.7989 31.2972 60.7965C33.0606 60.7382 34.3349 60.289 35.5671 59.8547C36.9506 59.3669 38.3811 58.8626 40.6252 58.8626C42.7598 58.8626 44.122 59.3506 45.4399 59.8224C46.7384 60.2872 48.0758 60.7682 50.0519 60.7374C54.2799 60.6723 56.8758 57.5346 59.166 54.7666C61.5556 51.8763 62.7547 49.0701 63.1591 47.9978L63.1756 47.955C63.2524 47.7645 63.1435 47.5565 62.9229 47.4726C62.9168 47.4702 62.8945 47.4626 62.888 47.4603C62.1437 47.2083 55.6129 44.8107 55.5442 38.2758C55.4803 32.9666 60.4433 30.155 61.4387 29.6454L61.4851 29.6214C61.5932 29.564 61.6684 29.473 61.6937 29.3688C61.7193 29.2646 61.6926 29.1563 61.6205 29.069C58.1948 24.9202 52.944 24.2949 50.8302 24.2197C50.5234 24.1944 50.2066 24.1816 49.8887 24.1816C47.4061 24.1816 45.0274 24.9578 43.1165 25.5813C41.7975 26.0117 40.6584 26.3834 39.8723 26.3834C38.9894 26.3834 37.8436 26.007 36.5169 25.5715C34.7425 24.9888 32.7315 24.3283 30.6026 24.3283C30.5517 24.3283 30.5018 24.3288 30.4525 24.3296C25.5024 24.3898 20.8249 26.7334 18.2462 30.445Z" fill="#D6D5D8"/>
<path id="Vector 2" d="M50.8345 12.8003C47.8366 12.9014 44.241 14.4284 42.0914 16.5117C40.2648 18.2629 38.4805 21.1826 38.9507 24.1254C38.9801 24.3096 39.1611 24.4517 39.385 24.4661C39.5871 24.479 39.7941 24.4858 39.9995 24.4859C42.9307 24.4859 46.0927 23.144 48.252 20.9832C50.5246 18.7014 51.6738 15.7734 51.3263 13.1505C51.2993 12.945 51.0805 12.7923 50.8345 12.8003Z" fill="#D6D5D8"/>
</g>
<path id="Ellipse 26" d="M58.46 96C67.1861 96 74.26 88.8366 74.26 80C74.26 71.1634 67.1861 64 58.46 64C49.7339 64 42.66 71.1634 42.66 80C42.66 88.8366 49.7339 96 58.46 96Z" fill="#DF1A1A"/>
<path id="Vector 3" d="M58.1096 87.8293C58.2025 87.939 58.3289 88 58.4612 88C58.5936 88 58.72 87.939 58.8127 87.8293L65.1292 80.4229C67.7633 77.3349 65.8916 72 62.1454 72C59.8958 72 58.8634 73.9131 58.4612 74.2704C58.057 73.9117 57.0313 72 54.7769 72C51.0426 72 49.1479 77.3211 51.7939 80.4229L58.1096 87.8293Z" fill="#FFFCFC"/>
</g>
</g>
</svg>
