<svg width="129" height="129" viewBox="0 0 129 129" fill="none" xmlns="http://www.w3.org/2000/svg">
<circle cx="64.5" cy="64.5" r="64.5" fill="url(#paint0_radial)"/>
<g filter="url(#filter0_d)">
<path d="M49.346 58.5132C34.81 58.5132 22.981 49.0052 22.981 37.3168C22.981 25.633 34.81 16.125 49.346 16.125C63.8877 16.125 75.7167 25.633 75.7167 37.3168C75.711 49.0052 63.882 58.5132 49.346 58.5132ZM49.346 18.5216C36.4525 18.5216 25.9568 26.9532 25.9568 37.3214C25.9568 47.6896 36.4468 56.1213 49.346 56.1213C62.2452 56.1213 72.7352 47.685 72.7352 37.3214C72.7352 26.9532 62.2395 18.5216 49.346 18.5216Z" fill="#232020" stroke="white" stroke-width="3" stroke-miterlimit="10"/>
<path d="M63.075 102.502H17.6129C16.7889 102.502 16.125 101.969 16.125 101.306V83.3343C16.125 68.3294 31.3134 56.1212 49.9812 56.1212C62.8404 56.1212 74.4291 61.8573 80.2263 71.0939C80.5983 71.6827 80.3007 72.4049 79.5682 72.7039C78.83 73.0029 77.9372 72.7637 77.5709 72.1749C72.283 63.7525 61.713 58.5178 49.9869 58.5178C32.9615 58.5178 19.1123 69.6496 19.1123 83.3343V100.11H63.0808C63.9048 100.11 64.5687 100.644 64.5687 101.306C64.563 101.969 63.8991 102.502 63.075 102.502Z" fill="#232020" stroke="white" stroke-width="3" stroke-miterlimit="10"/>
<path d="M82.9277 105.216H80.3524C79.8603 105.216 79.4654 104.894 79.4654 104.503V103.611C79.4654 103.27 79.2021 102.971 78.813 102.866C78.4295 102.76 78.0461 102.631 77.6856 102.488C77.3308 102.346 76.9016 102.406 76.6154 102.636L75.8085 103.284C75.4708 103.556 74.8871 103.556 74.5495 103.284L72.7296 101.821C72.3862 101.541 72.3862 101.09 72.7296 100.809L73.548 100.152C73.8341 99.9217 73.9085 99.5767 73.7311 99.2961C73.548 99.0063 73.3935 98.6981 73.2618 98.3899C73.1359 98.0817 72.7639 97.8747 72.3462 97.8747H71.2073C70.7152 97.8747 70.3203 97.5527 70.3203 97.1617V95.0918C70.3203 94.6962 70.7209 94.3788 71.2073 94.3788H72.3691C72.7868 94.3788 73.1531 94.158 73.3019 93.8222C73.4221 93.5462 73.5651 93.2748 73.7254 93.0126C73.9142 92.7044 73.8513 92.3456 73.5651 92.1202L72.7239 91.4441C72.3805 91.1635 72.3805 90.7127 72.7239 90.4321L74.5438 88.9693C74.8814 88.6979 75.4651 88.6979 75.8028 88.9693L76.6555 89.6547C76.9416 89.8847 77.3765 89.9353 77.7657 89.7835C78.0919 89.6547 78.4295 89.5397 78.7729 89.4477C79.1907 89.3327 79.4597 89.0429 79.4597 88.7117V87.7549C79.4597 87.3593 79.8602 87.0419 80.3467 87.0419H82.922C83.4141 87.0419 83.809 87.3639 83.809 87.7549V88.7117C83.809 89.0429 84.078 89.3327 84.4957 89.4477C84.8391 89.5443 85.1825 89.6547 85.503 89.7835C85.8921 89.9353 86.327 89.8847 86.6132 89.6547L87.4659 88.9693C87.8035 88.6979 88.3873 88.6979 88.7249 88.9693L90.5448 90.4321C90.7107 90.5655 90.8023 90.7449 90.8023 90.9381C90.8023 91.1267 90.7107 91.3061 90.5448 91.4441L89.7035 92.1202C89.4231 92.3456 89.3601 92.709 89.549 93.0126C89.7092 93.2748 89.8523 93.5462 89.9725 93.8222C90.1213 94.1626 90.4875 94.3788 90.9053 94.3788H92.067C92.5592 94.3788 92.9541 94.7008 92.9541 95.0918V97.1617C92.9541 97.5573 92.5535 97.8747 92.067 97.8747H90.9282C90.5104 97.8747 90.1442 98.0817 90.0125 98.3899C89.8866 98.6981 89.7264 99.0017 89.5433 99.2961C89.3659 99.5813 89.4403 99.9217 89.7264 100.152L90.5448 100.809C90.7107 100.943 90.8023 101.122 90.8023 101.315C90.8023 101.504 90.7107 101.683 90.5448 101.821L88.7249 103.284C88.3873 103.556 87.8035 103.556 87.4659 103.284L86.6532 102.636C86.3671 102.406 85.9379 102.346 85.5831 102.488C85.2225 102.636 84.8391 102.764 84.4557 102.866C84.0665 102.971 83.809 103.27 83.809 103.611V104.503C83.8147 104.894 83.4141 105.216 82.9277 105.216ZM77.2793 101.665C77.5597 101.665 77.8401 101.716 78.0976 101.821C78.4238 101.955 78.7615 102.065 79.1048 102.162C79.866 102.369 80.381 102.948 80.381 103.606V104.499L82.922 104.471L82.8876 103.602C82.8876 102.944 83.4027 102.364 84.1638 102.157C84.5072 102.065 84.8505 101.95 85.171 101.817C85.8806 101.532 86.7391 101.647 87.3056 102.102L88.1183 102.751L89.8923 101.288L89.074 100.667C88.5074 100.211 88.3644 99.5261 88.7134 98.9557C88.8737 98.6935 89.0168 98.4221 89.1312 98.1461C89.383 97.5343 90.1041 97.1249 90.9167 97.1249H92.027V95.0826L90.8996 95.1102C90.0984 95.1102 89.3716 94.687 89.0969 94.0568C88.9881 93.8084 88.8622 93.5646 88.7192 93.33C88.3529 92.7366 88.4903 92.0374 89.0511 91.582L89.8923 90.9059L88.0725 89.4799L87.2656 90.1653C86.7047 90.6161 85.8349 90.7219 85.1023 90.4321C84.8105 90.3171 84.5072 90.2159 84.1981 90.1285C83.4141 89.9123 82.8876 89.3327 82.8876 88.6887V87.7319L80.3467 87.7595L80.381 88.6887C80.381 89.3327 79.8545 89.9123 79.0705 90.1285C78.7615 90.2113 78.4582 90.3125 78.1663 90.4321C77.428 90.7219 76.5582 90.6115 75.9973 90.1653L75.1446 89.4799L73.3706 90.9427L74.2118 91.582C74.7727 92.0328 74.91 92.7366 74.5438 93.3254C74.4007 93.56 74.2691 93.8038 74.166 94.0522C73.8914 94.6824 73.1703 95.1056 72.3634 95.1056H71.2016L71.236 97.1479L72.3462 97.1203C73.1588 97.1203 73.8799 97.5297 74.1317 98.1415C74.2462 98.4175 74.3892 98.6935 74.5495 98.9511C74.8986 99.5215 74.7555 100.207 74.1889 100.662L73.3706 101.32L75.1904 102.746L75.9573 102.097C76.3236 101.817 76.7985 101.665 77.2793 101.665Z" fill="white" stroke="white"/>
<path d="M81.6402 101.246C78.1207 101.246 75.2593 98.9465 75.2593 96.1176C75.2593 93.2886 78.1207 90.9886 81.6402 90.9886C85.1598 90.9886 88.0212 93.2886 88.0212 96.1176C88.0212 98.9465 85.1598 101.246 81.6402 101.246ZM81.6402 91.7292C78.63 91.7292 76.1806 93.698 76.1806 96.1176C76.1806 98.5371 78.63 100.506 81.6402 100.506C84.6504 100.506 87.0998 98.5371 87.0998 96.1176C87.0998 93.698 84.6504 91.7292 81.6402 91.7292Z" fill="white" stroke="white"/>
<path d="M97.4183 90.4596C97.1092 90.4596 96.8116 90.3078 96.6972 90.0594L96.4511 89.535C96.3881 89.397 96.2336 89.3004 96.0162 89.3096C95.7644 89.3188 95.5125 89.3096 95.2607 89.2912C95.0604 89.2774 94.8659 89.3648 94.78 89.5074L94.5053 89.9996C94.3279 90.3078 93.8758 90.4504 93.4867 90.3078L92.056 89.788C91.8671 89.719 91.724 89.5994 91.6496 89.443C91.5753 89.2866 91.581 89.121 91.6668 88.9692L91.9415 88.477C92.0216 88.3345 91.9758 88.1597 91.8271 88.0447C91.6439 87.9067 91.4722 87.7595 91.312 87.6031C91.1861 87.4835 90.9915 87.4375 90.8141 87.4881L90.1674 87.6859C89.9729 87.7457 89.7668 87.7411 89.578 87.6721C89.3891 87.6031 89.2461 87.4835 89.1717 87.3271L88.6166 86.1449C88.4678 85.8275 88.6681 85.4687 89.0629 85.3491L89.7211 85.1467C89.8927 85.0915 90.0072 84.9535 90.0015 84.7971C89.9958 84.5947 90.0015 84.3923 90.0244 84.1899C90.0415 84.0289 89.9385 83.8771 89.7611 83.8127L89.1316 83.5827C88.7425 83.4447 88.5708 83.0767 88.7482 82.764L89.3949 81.614C89.5723 81.3012 90.0244 81.1632 90.4135 81.3058L91.0545 81.5404C91.2319 81.6048 91.4436 81.568 91.581 81.4484C91.7527 81.3058 91.9301 81.1678 92.1247 81.0436C92.2734 80.9424 92.3307 80.7814 92.2677 80.6434L92.0102 80.1006C91.9358 79.9488 91.9415 79.7786 92.0274 79.6268C92.1132 79.475 92.262 79.36 92.4566 79.3002L93.9273 78.854C94.1219 78.7942 94.3279 78.7988 94.5168 78.8678C94.7056 78.9368 94.8487 79.0564 94.9231 79.2128L95.1806 79.7602C95.2436 79.8982 95.421 79.9902 95.6156 79.9856C95.8616 79.981 96.1134 79.9856 96.3538 80.004C96.5484 80.0224 96.7372 79.935 96.8116 79.797L97.1092 79.268C97.2809 78.9552 97.7387 78.8172 98.1279 78.9598L99.5586 79.4796C99.7474 79.5486 99.8905 79.6682 99.9592 79.8246C100.034 79.981 100.028 80.1466 99.942 80.2984L99.6444 80.8274C99.5643 80.9654 99.6101 81.131 99.7532 81.2414C99.9306 81.3748 100.102 81.522 100.262 81.6738C100.388 81.7934 100.589 81.8394 100.76 81.7888L101.441 81.5818C101.63 81.522 101.842 81.5266 102.031 81.5956C102.22 81.6646 102.363 81.7842 102.437 81.9406L102.992 83.1227C103.067 83.2745 103.061 83.4447 102.975 83.5965C102.889 83.7483 102.74 83.8633 102.546 83.9231L101.871 84.1301C101.699 84.1853 101.584 84.3233 101.59 84.4797C101.602 84.6775 101.59 84.8799 101.573 85.0777C101.556 85.2387 101.659 85.3905 101.836 85.4549L102.477 85.6895C102.866 85.8275 103.038 86.1955 102.861 86.5083L102.214 87.6583C102.128 87.8101 101.979 87.9251 101.785 87.9849C101.59 88.0447 101.384 88.0401 101.195 87.9711L100.566 87.7411C100.388 87.6767 100.177 87.7135 100.039 87.8331C99.8676 87.9803 99.6845 88.1183 99.4899 88.2471C99.3411 88.3483 99.2839 88.5047 99.3526 88.6472L99.6044 89.1762C99.7532 89.4936 99.5529 89.8524 99.158 89.972L97.6872 90.4182C97.6014 90.4458 97.5098 90.4596 97.4183 90.4596ZM96.0333 88.5736C96.5999 88.5736 97.1092 88.8496 97.3095 89.2774L97.5041 89.6868L98.6887 89.328L98.4941 88.914C98.2881 88.4771 98.4541 87.9803 98.9119 87.6813C99.0779 87.5709 99.2324 87.4559 99.3697 87.3317C99.776 86.9821 100.411 86.8763 100.949 87.0695L101.441 87.2489L101.962 86.3197L101.459 86.1357C100.926 85.9425 100.606 85.4917 100.657 85.0179C100.675 84.8523 100.68 84.6821 100.675 84.5165C100.652 84.0427 101.001 83.6103 101.55 83.4447L102.082 83.2837L101.636 82.3316L101.098 82.4972C100.554 82.6628 99.942 82.5294 99.5643 82.1614C99.4327 82.0326 99.2896 81.9084 99.1351 81.798C98.7059 81.4714 98.5743 80.9654 98.8146 80.5376L99.0492 80.119L97.8932 79.7004L97.6586 80.119C97.4182 80.5468 96.8631 80.8044 96.2737 80.7584C96.0677 80.7446 95.8559 80.7354 95.6499 80.7446C95.049 80.7584 94.5282 80.4778 94.3222 80.0408L94.1162 79.6084L92.9316 79.9672L93.1319 80.395C93.3379 80.832 93.1662 81.3288 92.7141 81.6278C92.5539 81.7336 92.3993 81.8486 92.2563 81.9682C91.8499 82.3132 91.2204 82.419 90.6825 82.2258L90.1789 82.0418L89.6581 82.9709L90.1503 83.1504C90.6882 83.3435 91.0087 83.7989 90.9515 84.2727C90.9286 84.4383 90.9228 84.6085 90.9343 84.7833C90.9572 85.2571 90.6024 85.6849 90.0587 85.8505L89.5437 86.0069L89.99 86.9591L90.4994 86.8027C91.043 86.6371 91.6611 86.7705 92.0331 87.1385C92.1647 87.2673 92.3135 87.3961 92.468 87.5111C92.9029 87.8423 93.0346 88.3529 92.7942 88.7852L92.5825 89.167L93.7385 89.5856L93.9502 89.2038C94.1906 88.7714 94.7571 88.5093 95.3523 88.5553C95.5583 88.5691 95.7758 88.5737 95.9876 88.5691C95.999 88.5737 96.0162 88.5736 96.0333 88.5736Z" fill="white" stroke="white"/>
<path d="M95.8037 87.5709C95.3058 87.5709 94.7965 87.4881 94.3158 87.3133C93.4287 86.9913 92.7535 86.4117 92.4101 85.6849C92.0667 84.9535 92.0953 84.1623 92.4959 83.4493C92.8965 82.7364 93.6176 82.1936 94.5218 81.9176C95.4317 81.6416 96.4161 81.6646 97.3031 81.9866C98.1901 82.3086 98.8654 82.8882 99.2088 83.6149C99.5522 84.3463 99.5235 85.1375 99.1229 85.8505C98.5163 86.9269 97.1886 87.5709 95.8037 87.5709ZM95.8094 82.4604C95.4832 82.4604 95.157 82.5064 94.848 82.603C94.167 82.81 93.6348 83.2148 93.3372 83.7483C93.0396 84.2819 93.0167 84.8707 93.2742 85.4181C93.5317 85.9655 94.0354 86.3933 94.6992 86.6371C96.0612 87.1293 97.6751 86.6417 98.2874 85.5423C98.585 85.0087 98.6079 84.4199 98.3504 83.8725C98.0928 83.3252 97.5892 82.8974 96.9254 82.6536C96.5706 82.5294 96.1929 82.4604 95.8094 82.4604Z" fill="white" stroke="white"/>
<path d="M86.8766 112.875C72.5409 112.875 60.8721 103.5 60.8721 91.9776C60.8721 80.4548 72.5352 71.0756 86.8766 71.0756C101.212 71.0756 112.875 80.4502 112.875 91.9776C112.875 103.496 101.212 112.875 86.8766 112.875ZM86.8766 72.2071C73.3192 72.2071 62.2856 81.0758 62.2856 91.973C62.2856 102.87 73.3192 111.739 86.8766 111.739C100.434 111.739 111.468 102.87 111.468 91.973C111.468 81.0758 100.434 72.2071 86.8766 72.2071Z" fill="#232020" stroke="white" stroke-width="4" stroke-miterlimit="10"/>
</g>
<defs>
<filter id="filter0_d" x="10.625" y="14.625" width="108.25" height="108.25" filterUnits="userSpaceOnUse" color-interpolation-filters="sRGB">
<feFlood flood-opacity="0" result="BackgroundImageFix"/>
<feColorMatrix in="SourceAlpha" type="matrix" values="0 0 0 0 0 0 0 0 0 0 0 0 0 0 0 0 0 0 127 0"/>
<feOffset dy="4"/>
<feGaussianBlur stdDeviation="2"/>
<feColorMatrix type="matrix" values="0 0 0 0 0 0 0 0 0 0 0 0 0 0 0 0 0 0 0.25 0"/>
<feBlend mode="normal" in2="BackgroundImageFix" result="effect1_dropShadow"/>
<feBlend mode="normal" in="SourceGraphic" in2="effect1_dropShadow" result="shape"/>
</filter>
<radialGradient id="paint0_radial" cx="0" cy="0" r="1" gradientUnits="userSpaceOnUse" gradientTransform="translate(20.425 108.575) rotate(-40.6013) scale(123.888)">
<stop stop-color="#06DEFC"/>
<stop offset="0.475958" stop-color="#06D1EC"/>
<stop offset="1" stop-color="#06A3FC"/>
</radialGradient>
</defs>
</svg>
