<svg width="140" height="140" viewBox="0 0 140 140" fill="none" xmlns="http://www.w3.org/2000/svg">
<g id="back">
<g id="Ellipse 33" filter="url(#filter0_d)">
<circle cx="66" cy="66" r="60" fill="url(#paint0_radial)"/>
<circle cx="66" cy="66" r="57.5" stroke="#01FFF0" stroke-opacity="0.2" stroke-width="5"/>
</g>
<g id="Component 4" filter="url(#filter1_d)">
<g id="Group">
<path id="Vector" d="M100.047 32H31.9527C31.4249 32 31 32.4341 31 32.967V101.033C31 101.566 31.4249 102 31.9527 102H100.047C100.575 102 101 101.57 101 101.033V32.9627C101 32.4298 100.575 32 100.047 32ZM99.0902 33.9298V46.0756H32.9055V33.9298H99.0902ZM32.9055 100.066V48.0054H99.0902V100.066H32.9055Z" fill="white"/>
<path id="Vector_2" d="M38.6176 43.2691C40.3471 43.2691 41.7548 41.8465 41.7548 40.093C41.7548 38.3394 40.3471 36.9168 38.6176 36.9168C36.8881 36.9168 35.4805 38.3394 35.4805 40.093C35.4805 41.8465 36.8881 43.2691 38.6176 43.2691ZM38.6176 38.8509C39.2957 38.8509 39.845 39.4096 39.845 40.093C39.845 40.7806 39.2957 41.3351 38.6176 41.3351C37.9395 41.3351 37.3902 40.7763 37.3902 40.093C37.3902 39.4053 37.9395 38.8509 38.6176 38.8509Z" fill="white"/>
<path id="Vector_3" d="M46.5484 43.2691C48.2779 43.2691 49.6855 41.8465 49.6855 40.093C49.6855 38.3394 48.2779 36.9168 46.5484 36.9168C44.8189 36.9168 43.4113 38.3394 43.4113 40.093C43.4113 41.8465 44.8189 43.2691 46.5484 43.2691ZM46.5484 38.8509C47.2265 38.8509 47.7758 39.4096 47.7758 40.093C47.7758 40.7806 47.2265 41.3351 46.5484 41.3351C45.8703 41.3351 45.321 40.7763 45.321 40.093C45.321 39.4053 45.8703 38.8509 46.5484 38.8509Z" fill="white"/>
<path id="Vector_4" d="M54.4749 43.2691C56.2044 43.2691 57.6121 41.8465 57.6121 40.093C57.6121 38.3394 56.2044 36.9168 54.4749 36.9168C52.7454 36.9168 51.3378 38.3394 51.3378 40.093C51.3378 41.8465 52.7454 43.2691 54.4749 43.2691ZM54.4749 38.8509C55.153 38.8509 55.7023 39.4096 55.7023 40.093C55.7023 40.7806 55.153 41.3351 54.4749 41.3351C53.7968 41.3351 53.2475 40.7763 53.2475 40.093C53.2475 39.4053 53.7968 38.8509 54.4749 38.8509Z" fill="white"/>
</g>
<g id="Group_2">
<path id="Vector_5" d="M59.9681 91.6806H56.2C55.4833 91.6806 54.8997 91.2337 54.8997 90.6878V89.4457C54.8997 88.9729 54.5177 88.5561 53.947 88.4099C53.3848 88.2638 52.8269 88.0876 52.2947 87.8813C51.7797 87.6836 51.1488 87.7652 50.7283 88.0876L49.5438 88.9944C49.0546 89.3727 48.1962 89.3684 47.7027 88.9944L45.0376 86.9529C44.5312 86.5661 44.5312 85.9343 45.0376 85.5475L46.2393 84.6321C46.6599 84.3097 46.7672 83.8327 46.5097 83.4373C46.2436 83.0332 46.0161 82.6078 45.8273 82.1737C45.6385 81.7439 45.102 81.4516 44.4883 81.4516H42.8189C42.1022 81.4516 41.5186 81.0046 41.5186 80.4588V77.5792C41.5186 77.0291 42.1022 76.5864 42.8189 76.5864H44.5184C45.1321 76.5864 45.6685 76.2812 45.8831 75.8085C46.059 75.426 46.265 75.0434 46.5054 74.6781C46.78 74.2526 46.6899 73.7498 46.2736 73.436L45.0419 72.4948C44.5355 72.108 44.5355 71.4762 45.0419 71.0894L47.707 69.0522C48.1962 68.6782 49.0546 68.6739 49.5481 69.0522L50.7927 70.0063C51.2132 70.3286 51.8484 70.3974 52.4149 70.1825C52.8955 70.002 53.3891 69.8473 53.8912 69.714C54.5006 69.555 54.8997 69.151 54.8997 68.6868V67.3588C54.8997 66.8087 55.4833 66.366 56.2 66.366H59.9681C60.6848 66.366 61.2684 66.8129 61.2684 67.3588V68.6868C61.2684 69.151 61.6632 69.555 62.2769 69.714C62.7791 69.8473 63.2769 70.0063 63.7532 70.1825C64.3197 70.3931 64.9592 70.3243 65.3754 70.0063L66.62 69.0522C67.1136 68.6782 67.9676 68.6782 68.4611 69.0522L71.1262 71.0894C71.3708 71.2785 71.5081 71.5278 71.5081 71.7942C71.5081 72.0607 71.3708 72.31 71.1262 72.4991L69.8945 73.4403C69.4825 73.7584 69.3881 74.2569 69.667 74.6824C69.9031 75.0477 70.1134 75.4259 70.285 75.8128C70.4996 76.2855 71.036 76.5907 71.6497 76.5907H73.3492C74.0659 76.5907 74.6496 77.0377 74.6496 77.5835V80.4631C74.6496 81.0132 74.0659 81.4559 73.3492 81.4559H71.6798C71.0704 81.4559 70.5296 81.7439 70.3451 82.1737C70.1563 82.6035 69.9288 83.0289 69.6627 83.4373C69.4052 83.8327 69.5168 84.3097 69.9331 84.6321L71.1305 85.5475C71.3751 85.7366 71.5124 85.9859 71.5124 86.2524C71.5124 86.5188 71.3751 86.7681 71.1305 86.9572L68.4654 88.9944C67.9762 89.3684 67.1178 89.3727 66.6243 88.9944L65.4398 88.0876C65.0193 87.7652 64.3884 87.6836 63.8734 87.8813C63.3412 88.0876 62.7876 88.2638 62.2211 88.4099C61.6504 88.5561 61.2727 88.9729 61.2727 89.4457V90.6878C61.2684 91.2337 60.6848 91.6806 59.9681 91.6806ZM51.7025 86.7423C52.1102 86.7423 52.5179 86.8154 52.8998 86.9615C53.3762 87.1463 53.874 87.3054 54.3804 87.4343C55.4962 87.7223 56.2472 88.5303 56.2472 89.4457V90.6878L59.9681 90.6534L59.9209 89.4457C59.9209 88.5303 60.6719 87.7223 61.7877 87.4343C62.2941 87.3054 62.7876 87.1463 63.264 86.9615C64.2983 86.5618 65.5557 86.7209 66.3883 87.3612L67.5727 88.2681L70.1691 86.2309L68.9718 85.367C68.1435 84.7352 67.9332 83.7768 68.4439 82.986C68.6843 82.6206 68.8903 82.2381 69.0576 81.8556C69.431 81.0046 70.4781 80.433 71.6712 80.433H73.2934V77.5878L71.6412 77.6222C70.4653 77.6222 69.4053 77.0334 69.0061 76.1523C68.8473 75.8085 68.6628 75.4646 68.4525 75.1423C67.9203 74.3171 68.1135 73.3415 68.9375 72.714L70.1691 71.7727L67.5041 69.7871L66.3239 70.7412C65.5042 71.3687 64.2296 71.5192 63.1524 71.1151C62.7275 70.9561 62.2812 70.8143 61.8306 70.694C60.6847 70.3931 59.9166 69.5894 59.9166 68.6911V67.3631L56.1957 67.3975L56.243 68.6911C56.243 69.5894 55.4705 70.3931 54.3246 70.694C53.874 70.81 53.432 70.9518 53.0028 71.1151C51.9256 71.5192 50.651 71.3687 49.8313 70.7412L48.5868 69.7871L45.9904 71.8243L47.2221 72.714C48.046 73.3415 48.2392 74.3214 47.707 75.1423C47.4924 75.4689 47.3079 75.8085 47.1534 76.1523C46.7543 77.0291 45.6943 77.6222 44.5184 77.6222H42.8189L42.8661 80.4674L44.4883 80.433C45.6814 80.433 46.7328 81.0046 47.1019 81.8556C47.2693 82.2424 47.4753 82.6206 47.7113 82.986C48.2263 83.7768 48.016 84.7352 47.1877 85.367L45.9904 86.2825L48.6555 88.2681L49.7756 87.3612C50.3034 86.9529 50.9987 86.7423 51.7025 86.7423Z" fill="white"/>
<path id="Vector_6" d="M58.0841 86.1621C52.9342 86.1621 48.7456 82.9602 48.7456 79.0233C48.7456 75.0864 52.9342 71.8845 58.0841 71.8845C63.234 71.8845 67.4269 75.0864 67.4269 79.0233C67.4226 82.9602 63.234 86.1621 58.0841 86.1621ZM58.0841 72.9117C53.6766 72.9117 50.0932 75.6538 50.0932 79.019C50.0932 82.3886 53.6766 85.1263 58.0841 85.1263C62.4916 85.1263 66.075 82.3843 66.075 79.019C66.075 75.6538 62.4916 72.9117 58.0841 72.9117Z" fill="white"/>
<path id="Vector_7" d="M81.1814 71.1452C80.7264 71.1452 80.2973 70.9346 80.1256 70.5908L79.7651 69.8645C79.6707 69.6711 79.4433 69.5378 79.13 69.5507C78.7652 69.5593 78.3918 69.555 78.027 69.5292C77.7352 69.512 77.4477 69.6281 77.3275 69.8301L76.9241 70.5177C76.6666 70.9518 76.0014 71.1452 75.4349 70.9475L73.3406 70.2255C73.066 70.1309 72.8557 69.959 72.7484 69.7441C72.6411 69.5292 72.6497 69.2928 72.7741 69.0865L73.1775 68.3989C73.2977 68.1969 73.2291 67.9562 73.0102 67.8015C72.7398 67.6081 72.4866 67.4018 72.2549 67.1869C72.0746 67.0193 71.7828 66.9548 71.5296 67.0279L70.5768 67.3029C70.2936 67.3846 69.9889 67.376 69.7142 67.2814C69.4396 67.1869 69.2293 67.0149 69.122 66.8L68.3066 65.1583C68.0877 64.7156 68.3796 64.217 68.9589 64.0494L69.9245 63.77C70.1777 63.697 70.3408 63.5036 70.3322 63.2844C70.3193 63.0007 70.3322 62.717 70.3666 62.442C70.3966 62.2185 70.2421 62.0036 69.9803 61.9176L69.0576 61.5996C68.4911 61.4062 68.2379 60.8947 68.4954 60.4606L69.4396 58.8575C69.6971 58.4234 70.3623 58.23 70.9288 58.4277L71.8686 58.7501C72.1261 58.836 72.4351 58.7888 72.6368 58.6254C72.8857 58.4234 73.1518 58.2343 73.4308 58.0581C73.6496 57.9206 73.7355 57.6971 73.6367 57.4994L73.2634 56.7473C73.1561 56.5324 73.1647 56.3003 73.2891 56.0897C73.4136 55.8791 73.6368 55.7201 73.9157 55.6384L76.0658 55.0152C76.349 54.9335 76.6537 54.9421 76.9284 55.0367C77.203 55.1312 77.4133 55.3032 77.5206 55.518L77.8983 56.2788C77.9927 56.4722 78.2459 56.5968 78.5335 56.5925C78.8982 56.5839 79.2587 56.5925 79.6192 56.6183C79.9067 56.6398 80.1771 56.5238 80.293 56.3304L80.7264 55.5954C80.9839 55.1613 81.6491 54.9679 82.2156 55.1656L84.3142 55.8877C84.5889 55.9822 84.7992 56.1541 84.9064 56.369C85.0137 56.5839 85.0052 56.8203 84.8807 57.0266L84.4472 57.7616C84.3314 57.955 84.4 58.1871 84.6103 58.3375C84.8721 58.5223 85.121 58.7286 85.3528 58.9392C85.533 59.1068 85.8291 59.167 86.078 59.0982L87.0737 58.8102C87.3526 58.7286 87.6616 58.7372 87.9363 58.8317C88.211 58.9263 88.4213 59.0982 88.5285 59.3131L89.344 60.9549C89.4512 61.1698 89.4427 61.4019 89.3182 61.6125C89.1938 61.8231 88.9706 61.9821 88.6916 62.0638L87.7089 62.3474C87.4514 62.4205 87.2883 62.6182 87.3012 62.8331C87.314 63.1082 87.3054 63.3875 87.2711 63.6626C87.2454 63.8861 87.3998 64.0967 87.6573 64.1826L88.5972 64.505C89.1637 64.6984 89.4169 65.2098 89.1594 65.6439L88.2153 67.247C88.0908 67.4576 87.8676 67.6167 87.5887 67.6983C87.3054 67.78 87.0007 67.7714 86.7261 67.6768L85.8034 67.3588C85.5459 67.2685 85.2369 67.3201 85.0352 67.4877C84.7863 67.6897 84.5159 67.8831 84.2327 68.0636C84.0138 68.2012 83.9323 68.4247 84.0267 68.6181L84.3915 69.353C84.6103 69.7957 84.3185 70.2943 83.7392 70.4619L81.5891 71.0851C81.4474 71.1237 81.3101 71.1452 81.1814 71.1452ZM79.1557 68.5192C79.9883 68.5192 80.735 68.906 81.0269 69.4991L81.3101 70.0665L83.0439 69.5636L82.7564 68.9877C82.4559 68.3817 82.7006 67.6897 83.3658 67.2728C83.6061 67.1224 83.8335 66.9591 84.0395 66.7872C84.6361 66.2972 85.5631 66.1511 86.3484 66.4218L87.0694 66.6711L87.8333 65.3774L87.0951 65.1239C86.3141 64.8531 85.842 64.2299 85.9236 63.568C85.9536 63.3359 85.9579 63.1039 85.9493 62.8718C85.915 62.2099 86.4299 61.6125 87.2282 61.3804L88.005 61.1569L87.3484 59.8289L86.5587 60.0566C85.7605 60.2887 84.8635 60.0996 84.3142 59.5925C84.1211 59.412 83.9108 59.2443 83.6919 59.0853C83.0611 58.634 82.8679 57.9292 83.2199 57.3318L83.5632 56.7516L81.8723 56.167L81.529 56.7473C81.1771 57.3447 80.3617 57.7014 79.4991 57.6369C79.1987 57.6154 78.8897 57.6068 78.5892 57.6154C77.7052 57.6326 76.9499 57.2458 76.6494 56.6398L76.349 56.0338L74.6152 56.5367L74.9114 57.1298C75.2118 57.7401 74.9672 58.4277 74.2977 58.8489C74.0616 58.9951 73.8384 59.1541 73.6282 59.326C73.0316 59.8074 72.1089 59.9535 71.3236 59.6827L70.5854 59.4291L69.8215 60.7228L70.5425 60.9721C71.3279 61.2429 71.8 61.8704 71.7141 62.5365C71.6841 62.7686 71.6755 63.005 71.6841 63.2457C71.7141 63.9033 71.1991 64.5007 70.4052 64.7285L69.6499 64.9477L70.3065 66.2757L71.0489 66.0608C71.8472 65.8287 72.7484 66.0178 73.2977 66.5293C73.4908 66.7098 73.7054 66.886 73.9286 67.0493C74.568 67.5092 74.7569 68.2227 74.405 68.8244L74.0917 69.3573L75.7825 69.9375L76.0958 69.4046C76.452 68.8029 77.2717 68.4376 78.1515 68.502C78.4562 68.5235 78.7695 68.5321 79.0785 68.5192C79.1042 68.5192 79.13 68.5192 79.1557 68.5192Z" fill="white"/>
<path id="Vector_8" d="M78.8168 67.1181C78.0872 67.1181 77.3447 67.0021 76.6366 66.7571C75.3406 66.3101 74.3492 65.5064 73.8471 64.4878C73.345 63.4735 73.3879 62.3646 73.9716 61.3761C74.5552 60.3876 75.611 59.6269 76.9413 59.2443C78.2717 58.8575 79.718 58.8919 81.014 59.3389C82.3101 59.7859 83.3015 60.5896 83.8036 61.6082C84.3057 62.6225 84.2628 63.7314 83.6791 64.7199C82.7908 66.2284 80.8467 67.1181 78.8168 67.1181ZM78.8254 60.0137C78.349 60.0137 77.8726 60.0781 77.4177 60.2114C76.4263 60.4993 75.6367 61.0624 75.2033 61.8059C74.7655 62.5451 74.7312 63.3703 75.1088 64.1311C75.4865 64.8918 76.2247 65.4935 77.1946 65.8244C79.1901 66.5121 81.5505 65.8287 82.4517 64.303C82.8895 63.5637 82.9238 62.7386 82.5461 61.9778C82.1685 61.2171 81.4303 60.6154 80.4604 60.2844C79.9369 60.1039 79.3833 60.0137 78.8254 60.0137Z" fill="white"/>
</g>
<path d="M31 32V31.5H30.5V32H31ZM101 32H101.5V31.5H101V32ZM101 102V102.5H101.5V102H101ZM31 102H30.5V102.5H31V102ZM31 32.5H101V31.5H31V32.5ZM100.5 32V102H101.5V32H100.5ZM101 101.5H31V102.5H101V101.5ZM31.5 102V32H30.5V102H31.5Z" fill="white"/>
</g>
</g>
<defs>
<filter id="filter0_d" x="0" y="0" width="140" height="140" filterUnits="userSpaceOnUse" color-interpolation-filters="sRGB">
<feFlood flood-opacity="0" result="BackgroundImageFix"/>
<feColorMatrix in="SourceAlpha" type="matrix" values="0 0 0 0 0 0 0 0 0 0 0 0 0 0 0 0 0 0 127 0"/>
<feOffset dx="4" dy="4"/>
<feGaussianBlur stdDeviation="5"/>
<feColorMatrix type="matrix" values="0 0 0 0 0 0 0 0 0 0 0 0 0 0 0 0 0 0 0.25 0"/>
<feBlend mode="normal" in2="BackgroundImageFix" result="effect1_dropShadow"/>
<feBlend mode="normal" in="SourceGraphic" in2="effect1_dropShadow" result="shape"/>
</filter>
<filter id="filter1_d" x="26.5" y="31.5" width="79" height="79" filterUnits="userSpaceOnUse" color-interpolation-filters="sRGB">
<feFlood flood-opacity="0" result="BackgroundImageFix"/>
<feColorMatrix in="SourceAlpha" type="matrix" values="0 0 0 0 0 0 0 0 0 0 0 0 0 0 0 0 0 0 127 0"/>
<feOffset dy="4"/>
<feGaussianBlur stdDeviation="2"/>
<feColorMatrix type="matrix" values="0 0 0 0 0 0 0 0 0 0 0 0 0 0 0 0 0 0 0.25 0"/>
<feBlend mode="normal" in2="BackgroundImageFix" result="effect1_dropShadow"/>
<feBlend mode="normal" in="SourceGraphic" in2="effect1_dropShadow" result="shape"/>
</filter>
<radialGradient id="paint0_radial" cx="0" cy="0" r="1" gradientUnits="userSpaceOnUse" gradientTransform="translate(25 107) rotate(-40.6013) scale(115.244)">
<stop stop-color="#06DEFC"/>
<stop offset="0.475958" stop-color="#06D1EC"/>
<stop offset="1" stop-color="#06A3FC"/>
</radialGradient>
</defs>
</svg>
