<svg width="140" height="140" viewBox="0 0 140 140" fill="none" xmlns="http://www.w3.org/2000/svg">
<g id="bdd">
<g id="Ellipse 38" filter="url(#filter0_d)">
<circle cx="66" cy="66" r="60" fill="url(#paint0_radial)"/>
<circle cx="66" cy="66" r="57.5" stroke="#01FFF0" stroke-opacity="0.2" stroke-width="5"/>
</g>
<g id="bdd_2" filter="url(#filter1_d)">
<path id="Vector" fill-rule="evenodd" clip-rule="evenodd" d="M97.9861 65.4924C97.9861 74.4124 97.9707 83.3312 98 92.25C98.0055 93.9984 97.2025 95.3473 95.8567 96.4996C93.7051 98.347 91.04 99.3727 88.2871 100.204C84.0368 101.484 79.6445 102.173 75.1896 102.585C70.0124 103.066 64.8255 103.114 59.6427 102.806C54.0201 102.471 48.4574 101.739 43.1327 99.989C41.4487 99.4366 39.8051 98.7252 38.2436 97.9274C36.6584 97.1183 35.3585 95.956 34.6084 94.423C34.3078 93.8055 34.1171 93.0942 34.1101 92.4228C34.0475 87.5896 34.035 82.7513 34.0238 77.9168C34.0127 72.4072 34.0211 66.8951 34.0211 61.3843C34.0211 53.8796 34.0545 46.3736 34.0002 38.8701C33.9849 36.8536 34.9145 35.3431 36.5303 34.1032C38.9171 32.2696 41.7799 31.2601 44.7304 30.441C49.2354 29.191 53.8601 28.4521 58.5599 28.2342C62.4721 28.0513 66.3967 27.9498 70.3102 28.025C74.0832 28.0964 77.8311 28.5272 81.547 29.181C85.1237 29.8097 88.6267 30.6314 91.9181 32.0629C94.0141 32.976 95.9987 34.0744 97.1844 35.9518C97.634 36.662 97.9485 37.555 97.954 38.3666C98.0055 47.4081 97.9861 56.4509 97.9861 65.4924ZM94.7336 79.4473C93.4282 80.0673 92.2104 80.7298 90.9147 81.2371C87.1042 82.7275 83.0849 83.5379 78.9863 84.1002C75.3121 84.6025 71.6226 84.9293 67.9095 84.9231C64.6515 84.9156 61.3823 84.8692 58.1341 84.6551C55.4842 84.4785 52.8372 84.114 50.2207 83.6781C47.1381 83.1646 44.0902 82.4733 41.226 81.2759C39.9039 80.7236 38.6207 80.1011 37.2902 79.4999C37.2847 79.6177 37.2693 79.7742 37.268 79.927C37.2304 83.9023 37.2206 87.8789 37.1399 91.853C37.1204 92.8011 37.4238 93.5601 38.1322 94.2201C39.0327 95.0618 40.1015 95.6492 41.2803 96.1527C43.6184 97.1521 46.0525 97.8548 48.5548 98.4008C52.6966 99.3076 56.9052 99.8149 61.1527 99.9526C64.7016 100.067 68.2616 100.082 71.8091 99.9451C74.3476 99.8487 76.882 99.4917 79.3968 99.1335C82.9248 98.6363 86.3916 97.8823 89.6761 96.5798C91.335 95.9235 92.9717 95.1933 94.1157 93.8607C94.4065 93.5212 94.7002 93.0704 94.7044 92.6683C94.7489 88.2596 94.7336 83.856 94.7336 79.4473ZM37.2693 43.4766C37.2693 45.1787 37.2693 46.9347 37.2693 48.6894C37.2693 51.0578 37.3737 53.4299 37.229 55.7908C37.1469 57.1259 37.8163 57.9263 38.8378 58.669C40.3729 59.7837 42.1418 60.4988 43.9705 61.0988C49.2409 62.8246 54.7396 63.516 60.294 63.8504C65.751 64.1798 71.201 64.042 76.6384 63.4133C80.1623 63.0063 83.6332 62.4138 87.0095 61.4219C89.2906 60.7506 91.5048 59.934 93.3669 58.5099C94.2688 57.8198 94.7781 57.0132 94.76 55.8697C94.7016 51.9094 94.7378 47.9492 94.7364 43.9876C94.7364 43.7772 94.7155 43.5655 94.7072 43.3714C93.5451 43.9363 92.4693 44.5362 91.3253 45.0034C87.37 46.6215 83.1795 47.5521 78.8972 48.0331C75.0852 48.4614 71.2385 48.7344 67.4002 48.8609C63.0288 49.005 58.6643 48.7319 54.3207 48.1996C50.3543 47.7137 46.4366 47.0336 42.6943 45.731C40.8544 45.0923 39.1009 44.2469 37.2693 43.4766ZM37.2693 61.3229C37.2693 61.5096 37.2693 61.6461 37.2693 61.7801C37.268 65.9257 37.2777 70.0689 37.2554 74.2133C37.2513 74.9873 37.5811 75.5885 38.1503 76.1195C39.6339 77.506 41.5197 78.2913 43.4695 78.9589C49.607 81.0592 56.0381 81.7356 62.5319 81.9836C66.5596 82.1376 70.5928 82.0362 74.6176 81.6629C78.7357 81.2797 82.7982 80.6635 86.7451 79.5388C88.9218 78.9188 91.0567 78.1711 92.8923 76.9048C93.9069 76.2034 94.7767 75.4307 94.7614 74.0993C94.7127 70.0589 94.7406 66.0159 94.7378 61.9755C94.7378 61.7838 94.7141 61.5935 94.6974 61.3355C94.49 61.4482 94.3537 61.5146 94.2284 61.5922C92.1756 62.861 89.8932 63.6838 87.5412 64.3464C82.3166 65.8155 76.9335 66.5031 71.4876 66.7912C65.0259 67.1306 58.5822 66.9265 52.1886 65.952C46.9669 65.1542 41.8523 64.0533 37.2693 61.3229ZM67.3208 46.0755C70.4578 45.8388 73.4625 45.6559 76.4547 45.3766C80.481 45.0021 84.4251 44.2569 88.2329 42.9957C90.0838 42.3832 91.8959 41.658 93.3836 40.4707C95.1622 39.0529 95.1567 37.962 93.7232 36.6332C93.4435 36.3714 93.1206 36.1422 92.7908 35.928C90.3121 34.3111 87.4702 33.4143 84.5434 32.7956C81.7391 32.202 78.8902 31.706 76.0302 31.4204C72.6609 31.0848 69.2609 30.9119 65.8706 30.8681C61.7971 30.8155 57.7332 31.0822 53.6945 31.6396C50.0022 32.1493 46.3782 32.8733 42.9044 34.1232C41.1578 34.7507 39.4864 35.516 38.1517 36.7647C37.0397 37.8067 36.9479 38.726 37.9666 39.8395C38.3632 40.2728 38.8601 40.6486 39.3708 40.9767C41.6421 42.4433 44.2516 43.2374 46.9084 43.9037C50.5645 44.8193 54.2985 45.3854 58.084 45.6258C61.2014 45.8237 64.3244 45.9327 67.3208 46.0755Z" fill="white"/>
</g>
</g>
<defs>
<filter id="filter0_d" x="0" y="0" width="140" height="140" filterUnits="userSpaceOnUse" color-interpolation-filters="sRGB">
<feFlood flood-opacity="0" result="BackgroundImageFix"/>
<feColorMatrix in="SourceAlpha" type="matrix" values="0 0 0 0 0 0 0 0 0 0 0 0 0 0 0 0 0 0 127 0"/>
<feOffset dx="4" dy="4"/>
<feGaussianBlur stdDeviation="5"/>
<feColorMatrix type="matrix" values="0 0 0 0 0 0 0 0 0 0 0 0 0 0 0 0 0 0 0.25 0"/>
<feBlend mode="normal" in2="BackgroundImageFix" result="effect1_dropShadow"/>
<feBlend mode="normal" in="SourceGraphic" in2="effect1_dropShadow" result="shape"/>
</filter>
<filter id="filter1_d" x="30" y="28" width="72" height="83" filterUnits="userSpaceOnUse" color-interpolation-filters="sRGB">
<feFlood flood-opacity="0" result="BackgroundImageFix"/>
<feColorMatrix in="SourceAlpha" type="matrix" values="0 0 0 0 0 0 0 0 0 0 0 0 0 0 0 0 0 0 127 0"/>
<feOffset dy="4"/>
<feGaussianBlur stdDeviation="2"/>
<feColorMatrix type="matrix" values="0 0 0 0 0 0 0 0 0 0 0 0 0 0 0 0 0 0 0.25 0"/>
<feBlend mode="normal" in2="BackgroundImageFix" result="effect1_dropShadow"/>
<feBlend mode="normal" in="SourceGraphic" in2="effect1_dropShadow" result="shape"/>
</filter>
<radialGradient id="paint0_radial" cx="0" cy="0" r="1" gradientUnits="userSpaceOnUse" gradientTransform="translate(25 107) rotate(-40.6013) scale(115.244)">
<stop stop-color="#06DEFC"/>
<stop offset="0.475958" stop-color="#06D1EC"/>
<stop offset="1" stop-color="#06A3FC"/>
</radialGradient>
</defs>
</svg>
