<svg width="80" height="80" viewBox="0 0 80 80" fill="none" xmlns="http://www.w3.org/2000/svg">
<circle cx="40" cy="40" r="40" fill="#575958"/>
<path d="M37.4358 58.9453C38.4979 58.9453 39.3588 58.2895 39.3588 57.4805C39.3588 56.6715 38.4979 56.0156 37.4358 56.0156C36.3737 56.0156 35.5127 56.6715 35.5127 57.4805C35.5127 58.2895 36.3737 58.9453 37.4358 58.9453Z" fill="url(#paint0_linear)"/>
<path d="M50.2564 45.2734H47.6923V43.1833C50.429 41.4807 52.1795 38.8913 52.1795 35.9961V27.0947C54.5021 26.1935 56.0256 24.3663 56.0256 22.3242C56.0256 19.3626 52.8624 16.9531 48.9744 16.9531C48.0904 16.9531 47.2303 17.0795 46.4215 17.3246C44.8591 15.8784 42.5056 15 40 15C37.4944 15 35.1409 15.8784 33.5785 17.3246C32.7697 17.0795 31.9096 16.9531 31.0256 16.9531C27.1376 16.9531 23.9744 19.3626 23.9744 22.3242C23.9744 24.3664 25.4979 26.1935 27.8205 27.0947V35.9961C27.8205 38.8913 29.571 41.4807 32.3077 43.1833V45.2734H29.7436C21.614 45.2734 15 50.3114 15 56.5039V63.5352C15 64.3441 15.861 65 16.9231 65H63.0769C64.139 65 65 64.3441 65 63.5352V56.5039C65 50.3114 58.386 45.2734 50.2564 45.2734ZM31.0256 19.8828C31.924 19.8828 32.6001 20.1796 33.0092 20.4285C33.4694 20.7085 34.0724 20.8124 34.6463 20.7107C35.2199 20.6089 35.7006 20.3124 35.9506 19.9062C36.69 18.7055 38.2795 17.9297 40 17.9297C41.7205 17.9297 43.3099 18.7055 44.0492 19.9062C44.2994 20.3124 44.7801 20.6088 45.3537 20.7107C45.9274 20.8126 46.5306 20.7086 46.9908 20.4285C47.3999 20.1796 48.076 19.8828 48.9744 19.8828C50.7417 19.8828 52.1795 20.978 52.1795 22.3242C52.1795 23.4285 51.1904 24.3949 49.7741 24.6743C48.9258 24.8417 48.3333 25.4248 48.3333 26.0924V28.6719H31.6667V26.0924C31.6667 25.4249 31.0741 24.8417 30.2258 24.6743C28.8096 24.3949 27.8205 23.4285 27.8205 22.3242C27.8205 20.978 29.2583 19.8828 31.0256 19.8828ZM31.6667 31.6016H48.3333V35.9961C48.3333 39.4962 44.595 42.3438 40 42.3438C35.405 42.3438 31.6667 39.4962 31.6667 35.9961V31.6016ZM40 45.2734C41.3435 45.2734 42.6367 45.1064 43.8462 44.799V47.2266C43.8462 48.842 42.1208 50.1562 40 50.1562C37.8792 50.1562 36.1538 48.842 36.1538 47.2266V44.799C37.3633 45.1064 38.6565 45.2734 40 45.2734ZM18.8462 56.5039C18.8462 51.9269 23.7347 48.2031 29.7436 48.2031H32.4165C33.029 50.9706 36.1954 53.0859 40 53.0859C40.6638 53.0859 41.3082 53.0215 41.9231 52.9005V62.0703H27.8205V58.457C27.8205 57.648 26.9595 56.9922 25.8974 56.9922C24.8354 56.9922 23.9744 57.648 23.9744 58.457V62.0703H18.8462V56.5039ZM61.1539 62.0703H56.0256V58.457C56.0256 57.648 55.1646 56.9922 54.1026 56.9922C53.0405 56.9922 52.1795 57.648 52.1795 58.457V62.0703H45.7692V51.096C46.6963 50.2949 47.3405 49.3006 47.5835 48.2031H50.2564C56.2653 48.2031 61.1539 51.9269 61.1539 56.5039V62.0703Z" fill="url(#paint1_linear)"/>
<defs>
<linearGradient id="paint0_linear" x1="37.4358" y1="56.0156" x2="37.4358" y2="58.9453" gradientUnits="userSpaceOnUse">
<stop stop-color="#06A3FC"/>
<stop offset="0.484375" stop-color="#75DBFD"/>
<stop offset="1" stop-color="#06D1EC"/>
</linearGradient>
<linearGradient id="paint1_linear" x1="40" y1="15" x2="40" y2="65" gradientUnits="userSpaceOnUse">
<stop stop-color="#06A3FC"/>
<stop offset="0.484375" stop-color="#75DBFD"/>
<stop offset="1" stop-color="#06D1EC"/>
</linearGradient>
</defs>
</svg>
