<svg width="129" height="129" viewBox="0 0 80 80" fill="none" xmlns="http://www.w3.org/2000/svg">
<g id="curieux">
<circle id="Ellipse 51" cx="40" cy="40" r="40" fill="url(#paint0_radial)"/>
<g id="Calque 6" filter="url(#filter0_d)">
<g id="Group">
<path id="Vector" d="M30.6024 36.2873C21.5878 36.2873 14.252 30.3908 14.252 23.1422C14.252 15.8964 21.5878 10 30.6024 10C39.6205 10 46.9563 15.8964 46.9563 23.1422C46.9528 30.3908 39.6169 36.2873 30.6024 36.2873ZM30.6024 11.4862C22.6064 11.4862 16.0975 16.7152 16.0975 23.1451C16.0975 29.575 22.6028 34.8039 30.6024 34.8039C38.6019 34.8039 45.1073 29.5721 45.1073 23.1451C45.1073 16.7152 38.5983 11.4862 30.6024 11.4862Z" fill="#232020" stroke="white" stroke-width="3" stroke-miterlimit="10"/>
<path id="Vector_2" d="M39.1163 63.5673H10.9227C10.4117 63.5673 10 63.2363 10 62.8256V51.6802C10 42.3748 19.4192 34.8039 30.9961 34.8039C38.9708 34.8039 46.1576 38.3611 49.7528 44.0893C49.9834 44.4544 49.7989 44.9023 49.3446 45.0877C48.8868 45.2731 48.3331 45.1248 48.106 44.7597C44.8267 39.5364 38.2716 36.2901 30.9996 36.2901C20.4413 36.2901 11.8526 43.1936 11.8526 51.6802V62.0839H39.1198C39.6309 62.0839 40.0426 62.4148 40.0426 62.8256C40.039 63.2363 39.6273 63.5673 39.1163 63.5673Z" fill="#232020" stroke="white" stroke-width="3" stroke-miterlimit="10"/>
</g>
<g id="Group_2">
<g id="Group_3">
<path id="Vector_3" d="M53.8768 70C44.9865 70 37.75 64.1863 37.75 57.0403C37.75 49.8944 44.9829 44.0779 53.8768 44.0779C62.7672 44.0779 70.0001 49.8916 70.0001 57.0403C70.0001 64.1834 62.7672 70 53.8768 70ZM53.8768 44.7796C45.4692 44.7796 38.6266 50.2795 38.6266 57.0375C38.6266 63.7955 45.4692 69.2954 53.8768 69.2954C62.2845 69.2954 69.127 63.7955 69.127 57.0375C69.127 50.2795 62.2845 44.7796 53.8768 44.7796Z" fill="#232020" stroke="white" stroke-width="4" stroke-miterlimit="10"/>
</g>
</g>
<g id="Calque 7">
<g id="Group_4">
<path id="Vector_4" d="M56.5742 53.155C56.4961 53.155 56.4252 53.1237 56.3826 53.0638L54.9736 51.0184C54.9417 50.9699 54.9381 50.91 54.9665 50.8615C54.9949 50.8101 55.0517 50.7759 55.1191 50.7645L57.9725 50.3052C58.0897 50.2853 58.2032 50.348 58.2281 50.4422C58.2529 50.5363 58.1749 50.6276 58.0577 50.6475L55.4953 51.0583L56.7588 52.8954C56.8156 52.981 56.7801 53.0866 56.6736 53.1322C56.6452 53.1493 56.6097 53.155 56.5742 53.155Z" fill="white" stroke="white"/>
<path id="Vector_5" d="M49.6604 64.0265C49.5575 64.0265 49.4688 63.9695 49.4475 63.8867C49.4226 63.7926 49.5007 63.7013 49.6178 63.6814L52.1802 63.2706L50.9168 61.4335C50.86 61.3479 50.8955 61.2423 51.002 61.1967C51.1084 61.151 51.2397 61.1796 51.2965 61.2652L52.7055 63.3105C52.7374 63.359 52.741 63.4189 52.7126 63.4674C52.6842 63.5188 52.6274 63.553 52.56 63.5644L49.7066 64.0237C49.6888 64.0265 49.6746 64.0265 49.6604 64.0265Z" fill="white" stroke="white"/>
<path id="Vector_6" d="M52.4147 63.4931C52.4005 63.4931 52.3898 63.4931 52.3756 63.4902C50.8141 63.2649 49.3802 62.6772 48.2339 61.7872C45.0611 59.3254 44.9723 55.2489 48.0352 52.6986C49.2099 51.7202 50.7112 51.0755 52.3756 50.8387C52.4963 50.8216 52.6063 50.8843 52.6276 50.9785C52.6489 51.0726 52.5708 51.1639 52.4537 51.181C50.8815 51.4064 49.4619 52.0168 48.351 52.9411C45.455 55.3516 45.5402 59.2084 48.5391 61.5362C49.6216 62.3777 50.9773 62.934 52.4537 63.1451C52.5708 63.1622 52.6489 63.2535 52.6276 63.3476C52.6099 63.4332 52.5176 63.4931 52.4147 63.4931Z" fill="white" stroke="white"/>
<path id="Vector_7" d="M55.1613 63.4902C55.0583 63.4902 54.9661 63.4303 54.9483 63.3476C54.927 63.2535 55.0051 63.1622 55.1222 63.1451C56.6944 62.9197 58.1141 62.3092 59.2249 61.385C60.6268 60.2182 61.3827 58.6807 61.3472 57.0575C61.3117 55.4343 60.4919 53.9196 59.0368 52.7899C57.9543 51.9484 56.5986 51.3921 55.1222 51.181C55.0051 51.1639 54.927 51.0726 54.9483 50.9785C54.9696 50.8843 55.0832 50.8187 55.2003 50.8387C56.7619 51.064 58.1957 51.6517 59.342 52.5417C60.8788 53.7341 61.7447 55.3373 61.7838 57.0518C61.8228 58.7691 61.0243 60.3951 59.5408 61.6303C58.366 62.6088 56.8648 63.2535 55.2003 63.4902C55.1896 63.4902 55.1755 63.4902 55.1613 63.4902Z" fill="white" stroke="white"/>
</g>
</g>
</g>
</g>
<defs>
<filter id="filter0_d" x="4.5" y="8.5" width="71.5001" height="71.5" filterUnits="userSpaceOnUse" color-interpolation-filters="sRGB">
<feFlood flood-opacity="0" result="BackgroundImageFix"/>
<feColorMatrix in="SourceAlpha" type="matrix" values="0 0 0 0 0 0 0 0 0 0 0 0 0 0 0 0 0 0 127 0"/>
<feOffset dy="4"/>
<feGaussianBlur stdDeviation="2"/>
<feColorMatrix type="matrix" values="0 0 0 0 0 0 0 0 0 0 0 0 0 0 0 0 0 0 0.25 0"/>
<feBlend mode="normal" in2="BackgroundImageFix" result="effect1_dropShadow"/>
<feBlend mode="normal" in="SourceGraphic" in2="effect1_dropShadow" result="shape"/>
</filter>
<radialGradient id="paint0_radial" cx="0" cy="0" r="1" gradientUnits="userSpaceOnUse" gradientTransform="translate(12.6667 67.3333) rotate(-40.6013) scale(76.8295)">
<stop stop-color="#06DEFC"/>
<stop offset="0.475958" stop-color="#06D1EC"/>
<stop offset="1" stop-color="#06A3FC"/>
</radialGradient>
</defs>
</svg>
