<svg width="90" height="90" viewBox="0 0 90 90" fill="none" xmlns="http://www.w3.org/2000/svg">
<path d="M67.0859 25H21.9141C18.1016 25 15 27.8634 15 31.383V58.617C15 62.1366 18.1016 65 21.9141 65H67.0859C70.8984 65 74 62.1366 74 58.617V31.383C74 27.8634 70.8984 25 67.0859 25ZM66.6658 29.2553L44.5 44.476L22.3342 29.2553H66.6658ZM67.0859 60.7447H21.9141C20.6433 60.7447 19.6094 59.7902 19.6094 58.617V32.6876L44.5 49.7794L69.3906 32.6876V58.617C69.3906 59.7902 68.3567 60.7447 67.0859 60.7447Z" fill="url(#paint0_linear)"/>
<defs>
<linearGradient id="paint0_linear" x1="44.5" y1="25" x2="44.5" y2="65" gradientUnits="userSpaceOnUse">
<stop stop-color="#06A3FC"/>
<stop offset="1" stop-color="#06DEFC"/>
</linearGradient>
</defs>
</svg>
