<svg width="129" height="129" viewBox="0 0 80 80" fill="none" xmlns="http://www.w3.org/2000/svg">
<g id="equipe">
<circle id="Ellipse 37" cx="40" cy="40" r="40" fill="url(#paint0_radial)"/>
<g id="Vector" filter="url(#filter0_d)">
<path d="M60.3115 31.7669C61.3158 30.6106 61.9226 29.12 61.9226 27.4941C61.9226 23.8292 58.8447 20.8475 55.0615 20.8475C51.2784 20.8475 48.2005 23.8292 48.2005 27.4941C48.2005 27.5329 48.2028 27.5712 48.2035 27.6097C47.4227 27.1527 46.5102 26.8892 45.5355 26.8892H44.2055C45.8172 25.672 46.8567 23.7752 46.8567 21.6466C46.8569 17.9816 43.779 15 39.9959 15C36.2127 15 33.1349 17.9816 33.1349 21.6466C33.1349 23.7752 34.1744 25.672 35.7861 26.8892H34.4561C33.4849 26.8892 32.5754 27.151 31.7966 27.6051C31.7972 27.5679 31.7995 27.5313 31.7995 27.4941C31.7995 23.8292 28.7217 20.8475 24.9385 20.8475C21.1554 20.8475 18.0776 23.8292 18.0776 27.494C18.0776 29.1199 18.6843 30.6105 19.6887 31.7668C17.0861 31.8653 15 33.9312 15 36.458V47.1204C15 48.93 16.0705 50.5027 17.6337 51.2865L19.024 63.6932C19.1074 64.4366 19.7554 64.9999 20.5273 64.9999H29.3498C30.1218 64.9999 30.7698 64.4366 30.8531 63.6932L32.2437 51.2843C32.3717 51.2201 32.4967 51.1508 32.6182 51.0762L34.0819 63.6985C34.1679 64.4397 34.8148 64.9999 35.5845 64.9999H44.407C45.177 64.9999 45.824 64.4396 45.9096 63.6983L47.3723 51.0646C47.4967 51.1417 47.6246 51.2137 47.7558 51.2799L49.1469 63.6933C49.2302 64.4367 49.8783 65 50.6502 65H59.4728C60.2446 65 60.8927 64.4367 60.976 63.6933L62.3663 51.2866C63.9295 50.5029 65 48.9302 65 47.1206V36.458C65.0001 33.9312 62.914 31.8652 60.3115 31.7669ZM39.9959 17.9297C42.1114 17.9297 43.8327 19.5971 43.8327 21.6466C43.8327 23.6961 42.1115 25.3635 39.9959 25.3635C37.8803 25.3635 36.1591 23.6961 36.1591 21.6466C36.1591 19.5971 37.8803 17.9297 39.9959 17.9297ZM61.9759 36.458V47.1204C61.9759 48.0944 61.1421 48.8867 60.1174 48.8867H50.0055C49.3791 48.8867 48.8081 48.5807 48.4687 48.1077C49.8393 47.1912 50.7407 45.6524 50.7407 43.9114V34.6917H60.1173C61.1421 34.6918 61.9759 35.484 61.9759 36.458ZM55.0615 23.7771C57.1771 23.7771 58.8984 25.4445 58.8984 27.494C58.8984 29.5435 57.1771 31.2109 55.0615 31.2109C52.9459 31.2109 51.2247 29.5435 51.2247 27.494C51.2247 25.4445 52.9459 23.7771 55.0615 23.7771ZM41.0457 35.2033L39.9959 36.5212L38.946 35.2033L39.9959 32.6037L41.0457 35.2033ZM32.2751 31.972C32.2751 30.7847 33.2536 29.8189 34.4562 29.8189H37.8732L35.818 34.9082C35.6245 35.3873 35.7046 35.9295 36.0291 36.3368L38.7989 39.8138C39.0852 40.1733 39.5274 40.3837 39.996 40.3837C40.4646 40.3837 40.9068 40.1732 41.1931 39.8138L43.963 36.3368C44.2875 35.9296 44.3676 35.3873 44.1741 34.9082L42.1188 29.8189H45.5358C46.7385 29.8189 47.7169 30.7848 47.7169 31.972V43.9115C47.7169 45.0988 46.7385 46.0646 45.5358 46.0646H34.4561C33.2535 46.0646 32.275 45.0987 32.275 43.9115V31.972H32.2751ZM24.9385 23.7771C27.0542 23.7771 28.7753 25.4445 28.7753 27.494C28.7753 29.5435 27.0542 31.2109 24.9385 31.2109C22.8229 31.2109 21.1018 29.5435 21.1018 27.494C21.1018 25.4445 22.823 23.7771 24.9385 23.7771ZM18.0242 36.458C18.0242 35.484 18.858 34.6918 19.8827 34.6918H29.2509V43.9115C29.2509 45.6551 30.1551 47.1962 31.5293 48.1121C31.1877 48.5877 30.617 48.8868 29.9945 48.8868H19.8827C18.858 48.8867 18.0242 48.0944 18.0242 47.1204V36.458ZM21.8841 62.0702L20.735 51.8163H29.1422L27.993 62.0702H21.8841ZM43.0552 62.0702H36.9364L35.4201 48.9943H44.5691L43.0552 62.0702ZM52.0071 62.0702L50.858 51.8163H59.2651L58.116 62.0702H52.0071Z" fill="white"/>
</g>
</g>
<defs>
<filter id="filter0_d" x="11" y="15" width="58" height="58" filterUnits="userSpaceOnUse" color-interpolation-filters="sRGB">
<feFlood flood-opacity="0" result="BackgroundImageFix"/>
<feColorMatrix in="SourceAlpha" type="matrix" values="0 0 0 0 0 0 0 0 0 0 0 0 0 0 0 0 0 0 127 0"/>
<feOffset dy="4"/>
<feGaussianBlur stdDeviation="2"/>
<feColorMatrix type="matrix" values="0 0 0 0 0 0 0 0 0 0 0 0 0 0 0 0 0 0 0.25 0"/>
<feBlend mode="normal" in2="BackgroundImageFix" result="effect1_dropShadow"/>
<feBlend mode="normal" in="SourceGraphic" in2="effect1_dropShadow" result="shape"/>
</filter>
<radialGradient id="paint0_radial" cx="0" cy="0" r="1" gradientUnits="userSpaceOnUse" gradientTransform="translate(12.6667 67.3333) rotate(-40.6013) scale(76.8295)">
<stop stop-color="#06DEFC"/>
<stop offset="0.475958" stop-color="#06D1EC"/>
<stop offset="1" stop-color="#06A3FC"/>
</radialGradient>
</defs>
</svg>
