<svg width="90" height="100" viewBox="0 0 90 100" fill="none" xmlns="http://www.w3.org/2000/svg">
<g id="flutter 1">
<path id="Vector" d="M90 41.6667C90 44.187 89.7575 46.6548 89.2948 49.051C85.5313 68.5408 67.1308 83.3333 45 83.3333C28.3261 83.3333 13.77 74.937 5.99695 62.461C4.09957 59.4185 2.60824 56.1345 1.58695 52.6702C0.551074 49.165 0 45.4745 0 41.6667C0 18.6548 20.1472 0 45 0C65.5126 0 82.8184 12.7075 88.2385 30.085C89.3848 33.7618 90 37.648 90 41.6667Z" fill="#353637"/>
<path id="Vector_2" d="M55.1444 10.0008L10.801 43.1587L24.5262 53.4215L82.5949 10.0008H55.1444Z" fill="#47C5FB"/>
<path id="Vector_3" d="M54.8348 40.5778L31.092 58.3315L44.8687 68.7868L58.5685 58.5428L82.5944 40.5778H54.8348Z" fill="#47C5FB"/>
<path id="Vector_4" d="M44.8689 68.7868L55.2981 76.5853H82.5942L58.5683 58.5428L44.8689 68.7868Z" fill="#00569E"/>
<path id="Vector_5" d="M30.9377 58.4468L44.6633 48.1837L58.5685 58.5428L44.869 68.787L30.9377 58.4468Z" fill="#00B5F8"/>
<path id="Vector_6" d="M44.8689 68.7872L56.2764 65.9565L57.4097 59.4097L44.8689 68.7872Z" fill="url(#paint0_linear)" fill-opacity="0.8"/>
</g>
<defs>
<linearGradient id="paint0_linear" x1="45.3644" y1="61.9408" x2="53.6373" y2="65.9276" gradientUnits="userSpaceOnUse">
<stop/>
<stop offset="1" stop-opacity="0"/>
</linearGradient>
</defs>
</svg>
