<svg width="300" height="300" viewBox="0 0 300 300" fill="none" xmlns="http://www.w3.org/2000/svg">
<path d="M149.984 25C80.9688 25 25 81.1875 25 150.5C25 205.937 60.8125 252.969 110.5 269.578C116.75 270.734 119.031 266.859 119.031 263.531C119.031 260.547 118.922 252.656 118.859 242.187C84.0938 249.766 76.75 225.359 76.75 225.359C71.0781 210.859 62.875 207 62.875 207C51.5156 199.219 63.7187 199.375 63.7187 199.375C76.2656 200.266 82.8594 212.312 82.8594 212.312C94.0156 231.484 112.125 225.953 119.25 222.734C120.375 214.625 123.609 209.094 127.187 205.953C99.4375 202.781 70.25 192.016 70.25 143.937C70.25 130.234 75.125 119.031 83.125 110.25C81.8281 107.078 77.5469 94.3125 84.3438 77.0469C84.3438 77.0469 94.8438 73.6719 118.719 89.9063C128.688 87.125 139.375 85.7344 150.016 85.6875C160.625 85.75 171.328 87.125 181.312 89.9219C205.172 73.6875 215.656 77.0625 215.656 77.0625C222.469 94.3437 218.187 107.094 216.906 110.266C224.922 119.047 229.75 130.25 229.75 143.953C229.75 192.156 200.531 202.766 172.687 205.875C177.172 209.75 181.172 217.406 181.172 229.109C181.172 245.891 181.016 259.422 181.016 263.531C181.016 266.891 183.266 270.797 189.609 269.562C239.219 252.937 275 205.922 275 150.5C275 81.1875 219.031 25 149.984 25Z" fill="#5C6BC0"/>
</svg>
