<svg width="90" height="90" viewBox="0 0 90 90" fill="none" xmlns="http://www.w3.org/2000/svg">
<path d="M75 43.2196L45.5 25L16 43.2196L19.0198 45.6927L21.7817 43.9869V60.0869C21.7817 62.7959 24.8807 65 28.69 65H41.5854V48.9505H49.645V65H62.3102C66.1193 65 69.2185 62.796 69.2185 60.0869V43.987L71.9803 45.6928L75 43.2196ZM64.6129 60.0869C64.6129 60.9899 63.5798 61.7246 62.3102 61.7246H54.2506V45.6751H36.9798V61.7246H28.6898C27.4201 61.7246 26.3871 60.99 26.3871 60.087V41.1425L45.5 29.3381L64.6129 41.1425V60.0869Z" fill="url(#paint0_linear)"/>
<defs>
<linearGradient id="paint0_linear" x1="45.5012" y1="24.9984" x2="45.5012" y2="64.9999" gradientUnits="userSpaceOnUse">
<stop stop-color="#06A3FC"/>
<stop offset="1" stop-color="#06DEFC"/>
</linearGradient>
</defs>
</svg>
