<svg width="300" height="300" viewBox="0 0 300 300" fill="none" xmlns="http://www.w3.org/2000/svg">
<path d="M150 275C219.036 275 275 219.036 275 150C275 80.9644 219.036 25 150 25C80.9644 25 25 80.9644 25 150C25 219.036 80.9644 275 150 275Z" fill="url(#paint0_linear)"/>
<path d="M189.731 222.867H110.267C92.1445 222.867 77.3899 208.118 77.3899 189.983V110.535C77.3899 92.3983 92.1445 77.6455 110.267 77.6455H189.733C207.85 77.6455 222.612 92.3983 222.612 110.535V189.983C222.61 208.118 207.849 222.867 189.731 222.867ZM110.267 92.1081C100.109 92.1081 91.842 100.379 91.842 110.537V189.985C91.842 200.155 100.109 208.419 110.267 208.419H189.733C199.887 208.419 208.147 200.153 208.147 189.985V110.537C208.147 100.379 199.887 92.1081 189.733 92.1081H110.267V92.1081ZM150.002 188.216C129.305 188.216 112.472 171.381 112.472 150.685C112.472 129.987 129.305 113.154 150.002 113.154C170.695 113.154 187.535 129.987 187.535 150.685C187.535 171.383 170.695 188.216 150.002 188.216ZM150.002 127.606C137.27 127.606 126.921 137.965 126.921 150.685C126.921 163.417 137.27 173.764 150.002 173.764C162.735 173.764 173.079 163.417 173.079 150.685C173.079 137.965 162.735 127.606 150.002 127.606ZM188.97 103.926C183.699 103.926 179.446 108.183 179.446 113.456C179.446 118.699 183.699 122.976 188.97 122.976C194.224 122.976 198.502 118.699 198.502 113.456C198.502 108.183 194.224 103.926 188.97 103.926Z" fill="white"/>
<defs>
<linearGradient id="paint0_linear" x1="61.6128" y1="238.391" x2="238.388" y2="61.6158" gradientUnits="userSpaceOnUse">
<stop stop-color="#F3CA5F"/>
<stop offset="0.2151" stop-color="#F88827"/>
<stop offset="0.4301" stop-color="#DC2D5C"/>
<stop offset="0.7097" stop-color="#A44882"/>
<stop offset="1" stop-color="#46469B"/>
</linearGradient>
</defs>
</svg>
