<svg width="140" height="140" viewBox="0 0 140 140" fill="none" xmlns="http://www.w3.org/2000/svg">
<g id="integration">
<g id="Ellipse 37" filter="url(#filter0_d)">
<circle cx="66" cy="66" r="60" fill="url(#paint0_radial)"/>
<circle cx="66" cy="66" r="57.5" stroke="#01FFF0" stroke-opacity="0.2" stroke-width="5"/>
</g>
<g id="Group" filter="url(#filter1_d)">
<g id="Vector">
<mask id="path-3-inside-1" fill="white">
<path d="M100.025 101H69.8435C69.3067 101 68.8687 100.566 68.8687 100.029V58.367C68.8687 57.8303 69.3024 57.3965 69.8435 57.3965H100.025C100.562 57.3965 101 57.8303 101 58.367V100.029C101 100.566 100.566 101 100.025 101ZM70.8183 99.059H99.0546V59.3375H70.8183V99.059Z"/>
</mask>
<path d="M100.025 101H69.8435C69.3067 101 68.8687 100.566 68.8687 100.029V58.367C68.8687 57.8303 69.3024 57.3965 69.8435 57.3965H100.025C100.562 57.3965 101 57.8303 101 58.367V100.029C101 100.566 100.566 101 100.025 101ZM70.8183 99.059H99.0546V59.3375H70.8183V99.059Z" fill="white"/>
<path d="M70.8183 99.059H67.8183V102.059H70.8183V99.059ZM99.0546 99.059V102.059H102.055V99.059H99.0546ZM99.0546 59.3375H102.055V56.3375H99.0546V59.3375ZM70.8183 59.3375V56.3375H67.8183V59.3375H70.8183ZM100.025 98H69.8435V104H100.025V98ZM69.8435 98C70.9461 98 71.8687 98.892 71.8687 100.029H65.8687C65.8687 102.241 67.6673 104 69.8435 104V98ZM71.8687 100.029V58.367H65.8687V100.029H71.8687ZM71.8687 58.367C71.8687 59.496 70.9504 60.3965 69.8435 60.3965V54.3965C67.6544 54.3965 65.8687 56.1646 65.8687 58.367H71.8687ZM69.8435 60.3965H100.025V54.3965H69.8435V60.3965ZM100.025 60.3965C98.9226 60.3965 98 59.5046 98 58.367H104C104 56.156 102.201 54.3965 100.025 54.3965V60.3965ZM98 58.367V100.029H104V58.367H98ZM98 100.029C98 98.9006 98.9182 98 100.025 98V104C102.214 104 104 102.232 104 100.029H98ZM70.8183 102.059H99.0546V96.059H70.8183V102.059ZM102.055 99.059V59.3375H96.0546V99.059H102.055ZM99.0546 56.3375H70.8183V62.3375H99.0546V56.3375ZM67.8183 59.3375V99.059H73.8183V59.3375H67.8183Z" fill="white" mask="url(#path-3-inside-1)"/>
</g>
<g id="Vector_2">
<mask id="path-5-inside-2" fill="white">
<path d="M100.025 52.6729H69.8435C69.3067 52.6729 68.8687 52.2392 68.8687 51.7024V31.9748C68.8687 31.438 69.3024 31.0043 69.8435 31.0043H100.025C100.562 31.0043 101 31.438 101 31.9748V51.7024C101 52.2392 100.566 52.6729 100.025 52.6729ZM70.8183 50.7319H99.0546V32.9453H70.8183V50.7319Z"/>
</mask>
<path d="M100.025 52.6729H69.8435C69.3067 52.6729 68.8687 52.2392 68.8687 51.7024V31.9748C68.8687 31.438 69.3024 31.0043 69.8435 31.0043H100.025C100.562 31.0043 101 31.438 101 31.9748V51.7024C101 52.2392 100.566 52.6729 100.025 52.6729ZM70.8183 50.7319H99.0546V32.9453H70.8183V50.7319Z" fill="white"/>
<path d="M70.8183 50.7319H67.8183V53.7319H70.8183V50.7319ZM99.0546 50.7319V53.7319H102.055V50.7319H99.0546ZM99.0546 32.9453H102.055V29.9453H99.0546V32.9453ZM70.8183 32.9453V29.9453H67.8183V32.9453H70.8183ZM100.025 49.6729H69.8435V55.6729H100.025V49.6729ZM69.8435 49.6729C70.9461 49.6729 71.8687 50.5649 71.8687 51.7024H65.8687C65.8687 53.9135 67.6673 55.6729 69.8435 55.6729V49.6729ZM71.8687 51.7024V31.9748H65.8687V51.7024H71.8687ZM71.8687 31.9748C71.8687 33.1038 70.9504 34.0043 69.8435 34.0043V28.0043C67.6544 28.0043 65.8687 29.7723 65.8687 31.9748H71.8687ZM69.8435 34.0043H100.025V28.0043H69.8435V34.0043ZM100.025 34.0043C98.9226 34.0043 98 33.1123 98 31.9748H104C104 29.7638 102.201 28.0043 100.025 28.0043V34.0043ZM98 31.9748V51.7024H104V31.9748H98ZM98 51.7024C98 50.5735 98.9182 49.6729 100.025 49.6729V55.6729C102.214 55.6729 104 53.9049 104 51.7024H98ZM70.8183 53.7319H99.0546V47.7319H70.8183V53.7319ZM102.055 50.7319V32.9453H96.0546V50.7319H102.055ZM99.0546 29.9453H70.8183V35.9453H99.0546V29.9453ZM67.8183 32.9453V50.7319H73.8183V32.9453H67.8183Z" fill="white" mask="url(#path-5-inside-2)"/>
</g>
<g id="Vector_3">
<mask id="path-7-inside-3" fill="white">
<path d="M62.1565 74.6034H31.9749C31.438 74.6034 31 74.1697 31 73.6329V31.9705C31 31.4337 31.4338 31 31.9749 31H62.1565C62.6933 31 63.1313 31.4337 63.1313 31.9705V73.6329C63.1313 74.1697 62.6933 74.6034 62.1565 74.6034ZM32.9497 72.6667H61.1859V32.9453H32.9497V72.6667Z"/>
</mask>
<path d="M62.1565 74.6034H31.9749C31.438 74.6034 31 74.1697 31 73.6329V31.9705C31 31.4337 31.4338 31 31.9749 31H62.1565C62.6933 31 63.1313 31.4337 63.1313 31.9705V73.6329C63.1313 74.1697 62.6933 74.6034 62.1565 74.6034ZM32.9497 72.6667H61.1859V32.9453H32.9497V72.6667Z" fill="white"/>
<path d="M63.1313 73.6329H60.1313H63.1313ZM32.9497 72.6667H29.9497V75.6667H32.9497V72.6667ZM61.1859 72.6667V75.6667H64.1859V72.6667H61.1859ZM61.1859 32.9453H64.1859V29.9453H61.1859V32.9453ZM32.9497 32.9453V29.9453H29.9497V32.9453H32.9497ZM62.1565 71.6034H31.9749V77.6034H62.1565V71.6034ZM31.9749 71.6034C33.0774 71.6034 34 72.4955 34 73.6329H28C28 75.844 29.7987 77.6034 31.9749 77.6034V71.6034ZM34 73.6329V31.9705H28V73.6329H34ZM34 31.9705C34 33.0994 33.0817 34 31.9749 34V28C29.7858 28 28 29.768 28 31.9705H34ZM31.9749 34H62.1565V28H31.9749V34ZM62.1565 34C61.0539 34 60.1313 33.108 60.1313 31.9705H66.1313C66.1313 29.7594 64.3326 28 62.1565 28V34ZM60.1313 31.9705V73.6329H66.1313V31.9705H60.1313ZM60.1313 73.6329C60.1313 72.4955 61.0539 71.6034 62.1565 71.6034V77.6034C64.3327 77.6034 66.1313 75.844 66.1313 73.6329H60.1313ZM32.9497 75.6667H61.1859V69.6667H32.9497V75.6667ZM64.1859 72.6667V32.9453H58.1859V72.6667H64.1859ZM61.1859 29.9453H32.9497V35.9453H61.1859V29.9453ZM29.9497 32.9453V72.6667H35.9497V32.9453H29.9497Z" fill="white" mask="url(#path-7-inside-3)"/>
</g>
<g id="Vector_4">
<mask id="path-9-inside-4" fill="white">
<path d="M62.1565 101H31.9749C31.438 101 31 100.566 31 100.029V80.3019C31 79.7651 31.4338 79.3314 31.9749 79.3314H62.1565C62.6933 79.3314 63.1313 79.7651 63.1313 80.3019V100.029C63.1313 100.566 62.6933 101 62.1565 101ZM32.9497 99.059H61.1859V81.2724H32.9497V99.059Z"/>
</mask>
<path d="M62.1565 101H31.9749C31.438 101 31 100.566 31 100.029V80.3019C31 79.7651 31.4338 79.3314 31.9749 79.3314H62.1565C62.6933 79.3314 63.1313 79.7651 63.1313 80.3019V100.029C63.1313 100.566 62.6933 101 62.1565 101ZM32.9497 99.059H61.1859V81.2724H32.9497V99.059Z" fill="white"/>
<path d="M63.1313 100.029H60.1313H63.1313ZM32.9497 99.059H29.9497V102.059H32.9497V99.059ZM61.1859 99.059V102.059H64.1859V99.059H61.1859ZM61.1859 81.2724H64.1859V78.2724H61.1859V81.2724ZM32.9497 81.2724V78.2724H29.9497V81.2724H32.9497ZM62.1565 98H31.9749V104H62.1565V98ZM31.9749 98C33.0774 98 34 98.892 34 100.029H28C28 102.241 29.7987 104 31.9749 104V98ZM34 100.029V80.3019H28V100.029H34ZM34 80.3019C34 81.4308 33.0817 82.3314 31.9749 82.3314V76.3314C29.7858 76.3314 28 78.0994 28 80.3019H34ZM31.9749 82.3314H62.1565V76.3314H31.9749V82.3314ZM62.1565 82.3314C61.0539 82.3314 60.1313 81.4394 60.1313 80.3019H66.1313C66.1313 78.0908 64.3326 76.3314 62.1565 76.3314V82.3314ZM60.1313 80.3019V100.029H66.1313V80.3019H60.1313ZM60.1313 100.029C60.1313 98.892 61.0539 98 62.1565 98V104C64.3327 104 66.1313 102.241 66.1313 100.029H60.1313ZM32.9497 102.059H61.1859V96.059H32.9497V102.059ZM64.1859 99.059V81.2724H58.1859V99.059H64.1859ZM61.1859 78.2724H32.9497V84.2724H61.1859V78.2724ZM29.9497 81.2724V99.059H35.9497V81.2724H29.9497Z" fill="white" mask="url(#path-9-inside-4)"/>
</g>
</g>
</g>
<defs>
<filter id="filter0_d" x="0" y="0" width="140" height="140" filterUnits="userSpaceOnUse" color-interpolation-filters="sRGB">
<feFlood flood-opacity="0" result="BackgroundImageFix"/>
<feColorMatrix in="SourceAlpha" type="matrix" values="0 0 0 0 0 0 0 0 0 0 0 0 0 0 0 0 0 0 127 0"/>
<feOffset dx="4" dy="4"/>
<feGaussianBlur stdDeviation="5"/>
<feColorMatrix type="matrix" values="0 0 0 0 0 0 0 0 0 0 0 0 0 0 0 0 0 0 0.25 0"/>
<feBlend mode="normal" in2="BackgroundImageFix" result="effect1_dropShadow"/>
<feBlend mode="normal" in="SourceGraphic" in2="effect1_dropShadow" result="shape"/>
</filter>
<filter id="filter1_d" x="27" y="31" width="78" height="78" filterUnits="userSpaceOnUse" color-interpolation-filters="sRGB">
<feFlood flood-opacity="0" result="BackgroundImageFix"/>
<feColorMatrix in="SourceAlpha" type="matrix" values="0 0 0 0 0 0 0 0 0 0 0 0 0 0 0 0 0 0 127 0"/>
<feOffset dy="4"/>
<feGaussianBlur stdDeviation="2"/>
<feColorMatrix type="matrix" values="0 0 0 0 0 0 0 0 0 0 0 0 0 0 0 0 0 0 0.25 0"/>
<feBlend mode="normal" in2="BackgroundImageFix" result="effect1_dropShadow"/>
<feBlend mode="normal" in="SourceGraphic" in2="effect1_dropShadow" result="shape"/>
</filter>
<radialGradient id="paint0_radial" cx="0" cy="0" r="1" gradientUnits="userSpaceOnUse" gradientTransform="translate(25 107) rotate(-40.6013) scale(115.244)">
<stop stop-color="#06DEFC"/>
<stop offset="0.475958" stop-color="#06D1EC"/>
<stop offset="1" stop-color="#06A3FC"/>
</radialGradient>
</defs>
</svg>
