<svg width="75" height="88" viewBox="0 0 75 88" fill="none" xmlns="http://www.w3.org/2000/svg">
<g id="java 1">
<path id="Vector" d="M75 36.6667C75 50.1569 67.5489 61.9472 56.4489 68.3137C56.1504 68.4858 55.8474 68.6535 55.5427 68.8166C50.1903 71.6961 44.0418 73.3333 37.5 73.3333C32.4399 73.3333 27.6153 72.353 23.2118 70.5766C22.5047 70.2923 21.8082 69.987 21.1241 69.6606C8.61885 63.7176 0 51.1763 0 36.6667C0 16.4163 16.7893 0 37.5 0C58.2107 0 75 16.4163 75 36.6667Z" fill="#E5E5E5"/>
<path id="Vector_2" d="M42.4251 0.659576C43.5366 4.80878 43.2334 6.88345 37.3734 11.6255C31.5132 16.3676 30.6039 16.4663 30.6039 19.43C30.6039 22.3937 35.1 27.0863 37.2723 28.4199C37.2723 28.4199 36.9187 27.5802 36.1104 26.296C35.302 25.0118 32.8267 22.8384 33.2812 19.5288C33.7359 16.2194 40.8843 11.996 42.7282 8.81004C44.572 5.62375 44.1429 2.93177 42.4251 0.659576Z" fill="#DE0A17"/>
<path id="Vector_3" d="M48.8914 11.1314C43.8397 12.7615 37.5754 15.33 37.5754 20.319C37.5754 25.3079 40.8085 24.3694 40.8085 27.0367C40.8085 29.7041 39.0403 30.4943 39.0403 30.4943C39.0403 30.4943 43.6879 28.7654 43.4859 25.3078C43.284 21.8501 40.5054 22.3441 40.5054 19.1334C40.5054 15.0694 48.8914 11.1314 48.8914 11.1314Z" fill="#DE0A17"/>
<path id="Vector_4" d="M31.0083 28.8153C25.9564 28.8153 22.4707 30.6429 22.4707 31.6801C22.4707 32.7175 28.6845 33.7055 35.4034 33.2609C42.1224 32.8164 45.6586 32.273 48.336 30.6922C48.336 30.6922 43.5873 31.7788 39.9499 31.7788C36.3126 31.7788 25.9176 32.4145 26.1586 30.8898C26.3995 29.365 32.4229 28.8152 32.4229 28.8152L31.0083 28.8153Z" fill="#DE0A17"/>
<path id="Vector_5" d="M29.1386 34.5941C26.4613 35.5328 25.7539 36.4712 27.32 37.4591C28.8862 38.447 31.9678 38.7433 36.2113 38.7433C40.4548 38.7433 46.3655 37.3108 46.3655 37.3108L44.4458 35.8288C44.4458 35.8288 41.8189 36.7674 36.8176 36.7674C31.8163 36.7674 26.7896 36.8911 29.1386 34.5941Z" fill="#DE0A17"/>
<path id="Vector_6" d="M30.3511 40.1761C27.7242 41.0653 27.1684 42.2507 29.4924 43.3374C31.8162 44.424 36.2617 44.6216 39.5454 44.177C42.829 43.7326 45.6075 42.7445 45.6075 42.7445C45.6075 42.7445 43.8141 42.0776 42.9805 41.2625C42.9805 41.2625 39.1411 42.0528 35.5038 42.0528C31.8664 42.0528 28.9368 41.5592 30.3511 40.1761Z" fill="#DE0A17"/>
<path id="Vector_7" d="M49.9525 29.1116C49.9525 29.1116 51.2154 27.4319 54.3982 28.7163C57.5809 30.0005 57.4798 33.4583 54.6003 35.5329C51.7206 37.6074 48.2349 38.2991 48.2349 38.2991C48.2349 38.2991 54.7012 35.5329 54.5497 32.1247C54.3982 28.7164 51.4174 28.8153 49.9525 29.1116Z" fill="#DE0A17"/>
<path id="Vector_8" d="M24.0873 47.091C34.0398 48.8692 49.1952 47.042 51.8718 46.4005C54.5499 45.7574 53.5692 44.3643 53.5692 44.3643C54.224 44.8164 54.515 45.3143 54.2468 45.8567C52.7813 48.8204 38.8382 49.3137 34.7462 49.3137C30.6542 49.3137 18.2267 49.0676 18.2267 46.8939C18.2267 44.7468 24.0903 43.4189 26.2788 43.9124C22.1625 45.0639 19.7193 46.3102 24.0873 47.091Z" fill="#DE0A17"/>
<path id="Vector_9" d="M25.2238 50.2649C25.2238 50.2649 28.7474 52.895 46.2898 51.3762C53.2993 50.8204 56.2166 49.1163 56.5955 47.227C56.5955 47.227 53.375 49.0051 49.3966 49.7463C45.4186 50.4872 38.8637 51.6358 25.2238 50.2649Z" fill="#DE0A17"/>
<path id="Vector_10" d="M24.8848 54.0676H21.9721C22.0364 56.4576 22.1006 58.5574 22.1006 60.7395C22.1006 62.4023 22.0364 64.3553 22.0364 66.3084C22.0364 67.5984 21.7349 68.6864 21.1241 69.6608C21.8083 69.9871 22.5047 70.2924 23.2118 70.5767C24.2587 69.3376 24.8542 67.8005 24.8204 65.873C24.7775 64.2925 24.7775 62.2571 24.7775 60.7397C24.7775 58.4737 24.8204 56.2706 24.8848 54.0676Z" fill="#DE0A17"/>
<path id="Vector_11" d="M44.4964 58.0997L42.7316 63.212C42.4133 64.1475 42.179 65.0409 41.9663 65.9344H41.7751C41.6266 65.02 41.4139 64.1893 41.0527 63.212L40.4786 61.5702C40.0531 60.4073 39.6919 59.1801 39.3736 57.9964L36.4409 58.3496L40.5217 68.6985L42.6262 68.4906L45.1118 62.1944C45.6017 60.9686 46.2383 59.5125 46.8337 58.2239L44.4964 58.0997Z" fill="#DE0A17"/>
<path id="Vector_12" d="M52.6854 57.9945C51.496 57.9945 50.1354 58.2446 48.3292 59.2218L48.796 60.8425L48.966 60.9459C50.1354 60.1151 51.1777 59.72 51.9843 59.72C53.068 59.72 53.8761 60.4265 53.8761 61.5504V62.4633C49.2216 63.1503 48.0736 64.5631 48.0736 66.2047C48.0736 67.9304 49.3287 68.8643 50.7307 68.8643C51.9 68.8643 52.9194 68.1787 53.8348 67.4304L54.0247 67.4725C54.2145 68.4064 54.8451 68.7595 55.543 68.8164C55.8475 68.6532 56.1505 68.4857 56.4492 68.3135V61.2376C56.4492 59.0558 55.1098 57.9945 52.6854 57.9945ZM53.8762 66.1631C53.1124 66.8081 52.4743 67.1403 51.9001 67.1403C51.1777 67.1403 50.5822 66.6839 50.5822 65.7889C50.5822 64.8327 51.2404 64.1262 53.8761 63.752V66.1631H53.8762Z" fill="#DE0A17"/>
<path id="Vector_13" d="M31.4957 57.9964C30.3063 57.9964 28.9457 58.2449 27.138 59.2221L27.6063 60.8429L27.7763 60.9476C28.9457 60.1154 29.9865 59.7205 30.7946 59.7205C31.8783 59.7205 32.6865 60.4268 32.6865 61.5493V62.4637C28.0319 63.1506 26.8839 64.5634 26.8839 66.205C26.8839 67.9307 28.1375 68.8645 29.541 68.8645C30.7089 68.8645 31.7298 68.179 32.6436 67.4309L32.8349 67.4728C33.0476 68.5325 33.8343 68.8452 34.641 68.8242C34.8399 68.8242 35.0481 68.8003 35.2578 68.7569V61.2379C35.2578 59.0559 33.9186 57.9964 31.4957 57.9964ZM32.6865 66.1632C31.9212 66.8084 31.2828 67.1405 30.7089 67.1405C29.9865 67.1405 29.391 66.6826 29.391 65.7891C29.391 64.8328 30.0507 64.1265 32.6865 63.7523V66.1632Z" fill="#DE0A17"/>
<path id="Vector_14" d="M72 73.3333C72 81.4336 65.2843 88 57 88C48.7156 88 42 81.4336 42 73.3333C42 65.2331 48.7156 58.6667 57 58.6667C65.2843 58.6667 72 65.2331 72 73.3333Z" fill="#CBCDCC"/>
</g>
</svg>
