<svg width="63" height="70" viewBox="0 0 63 70" fill="none" xmlns="http://www.w3.org/2000/svg">
<g id="Group">
<g id="Group_2">
<g id="Group_3">
<path id="Vector" d="M0.00716789 22.3536C0.0811483 20.5896 1.01527 18.9739 2.50733 18.03L33.0695 0.387359C33.6551 0.0136393 34.3713 -0.0958922 35.0419 0.0859765C35.0693 0.0918565 35.0962 0.0965058 35.1229 0.104847C35.1291 0.107035 35.1361 0.107035 35.1423 0.109496C35.1603 0.115376 35.1782 0.121667 35.1953 0.128367C35.3281 0.180603 35.4538 0.249522 35.5693 0.333345L38.8981 2.25924C38.9299 2.27524 38.9663 2.27975 38.9973 2.2978C39.0291 2.31613 39.0518 2.3458 39.0822 2.3659L39.1404 2.39954C39.2053 2.44275 39.2643 2.4943 39.3157 2.55296C39.813 3.03745 40.0806 3.71064 40.0518 4.40433V31.5538L62.1841 44.3305C62.2041 44.3393 62.2169 44.3561 62.2359 44.366C62.2455 44.3712 62.2565 44.3727 62.266 44.3781C62.2971 44.3997 62.3269 44.4229 62.3555 44.4476C62.3983 44.4754 62.4386 44.5067 62.4762 44.5413C62.7053 44.767 62.8322 45.0766 62.8275 45.3982V48.726C62.8129 49.2984 62.5086 49.8242 62.0196 50.1223L27.8893 69.8269C27.7018 69.9371 27.4886 69.9961 27.2712 69.9978C27.0783 69.9985 26.8886 69.9479 26.7215 69.8513C26.6286 69.7968 26.5445 69.7289 26.4718 69.6496L4.13941 56.8088C4.09866 56.7953 4.05887 56.779 4.02044 56.7598L0.460487 54.7069C0.429855 54.6834 0.400867 54.6578 0.373655 54.6303C0.322648 54.5941 0.275605 54.5525 0.233214 54.5064C0.161831 54.4146 0.103439 54.3134 0.0596793 54.2056C0.0406714 54.145 0.0282302 54.0827 0.02235 54.0194C0.0123674 53.9824 0.00484612 53.945 -7.67925e-05 53.9071L0.00716789 22.3536ZM38.2093 4.4042C38.2205 4.24079 38.1863 4.07738 38.1105 3.93202L38.0245 3.88238C37.8538 3.88826 37.6884 3.94228 37.5471 4.038L6.98581 21.6815C6.06741 22.2986 5.48377 23.3038 5.40336 24.4073V50.5369L38.2093 31.5977V4.4042ZM28.0027 67.6335L60.9848 48.592V46.5957L48.1972 53.9789C47.9689 54.5372 47.5696 55.0087 47.0564 55.3257L42.2522 58.0992C41.8552 58.3485 41.3683 58.4088 40.9225 58.2639C40.8928 58.2531 40.8631 58.2415 40.8343 58.2297L28.0025 65.6372V67.6335H28.0027ZM27.0605 64.0537L40.4862 56.3028C40.8184 56.1115 41.2341 56.1456 41.5307 56.3883L46.1351 53.7299C46.339 53.578 46.4852 53.3614 46.5499 53.1155C46.6129 52.8787 46.7676 52.6767 46.98 52.5542L59.8608 45.117L39.1681 33.1713L6.32436 52.1331L27.0605 64.0537ZM4.89617 55.1375C4.92202 55.1493 4.95005 55.1494 4.97507 55.1638L26.1601 67.3416V65.6613L4.02317 52.9354C4.01169 52.9288 4.00567 52.9174 3.99459 52.9104C3.91651 52.8605 3.8465 52.7991 3.78701 52.7281C3.76486 52.7024 3.74421 52.6753 3.7252 52.6473C3.67228 52.5713 3.63112 52.4874 3.60336 52.3991C3.5998 52.3873 3.59461 52.3768 3.5916 52.3649C3.57149 52.2893 3.56124 52.2113 3.56083 52.1331V24.4074C3.64684 22.6467 4.57974 21.0364 6.06454 20.0861L36.0771 2.7589L34.6493 1.93516L34.4784 1.83233C34.3031 1.82822 34.1312 1.88155 33.9889 1.98425L3.43133 19.6242C2.51403 20.2439 1.93134 21.2496 1.8497 22.3537V50.0836L1.84355 53.3771L4.89617 55.1375Z" fill="url(#paint0_linear)"/>
<path id="Vector_2" d="M10.7972 51.2979L37.9829 35.5182C38.2728 35.349 38.632 35.3516 38.9195 35.5249L48.2301 41.1115C48.5096 41.2793 48.6795 41.5823 48.6772 41.9083C48.6748 42.2343 48.5003 42.5347 48.2184 42.6984L21.0326 58.4785C20.7423 58.6465 20.3837 58.6438 20.096 58.4712L10.7856 52.8847C10.506 52.7169 10.3361 52.4139 10.3384 52.0879C10.3407 51.7622 10.5152 51.4616 10.7972 51.2979ZM20.5782 56.612L45.9431 41.8879L38.4373 37.3845L13.0724 52.1085L20.5782 56.612Z" fill="url(#paint1_linear)"/>
<path id="Vector_3" d="M30.843 53.4955L42.3841 46.7963C42.6745 46.6285 43.033 46.6312 43.3207 46.8036L47.273 49.1752C47.5525 49.3429 47.7225 49.646 47.7202 49.972C47.7177 50.298 47.5434 50.5985 47.2614 50.7622L35.7202 57.4614C35.4299 57.6294 35.0713 57.6267 34.7836 57.4541L30.8313 55.0825C30.5518 54.9147 30.3818 54.6117 30.3842 54.2857C30.3865 53.9598 30.561 53.6592 30.843 53.4955ZM35.2658 55.5945L44.986 49.9516L42.8384 48.6633L33.1182 54.3062L35.2658 55.5945Z" fill="url(#paint2_linear)"/>
</g>
</g>
</g>
<defs>
<linearGradient id="paint0_linear" x1="31.4138" y1="0" x2="31.4138" y2="69.9978" gradientUnits="userSpaceOnUse">
<stop stop-color="#06A3FC"/>
<stop offset="1" stop-color="#06DEFC"/>
</linearGradient>
<linearGradient id="paint1_linear" x1="29.5078" y1="35.3931" x2="29.5078" y2="58.6026" gradientUnits="userSpaceOnUse">
<stop stop-color="#06A3FC"/>
<stop offset="1" stop-color="#06DEFC"/>
</linearGradient>
<linearGradient id="paint2_linear" x1="39.0522" y1="46.6724" x2="39.0522" y2="57.5855" gradientUnits="userSpaceOnUse">
<stop stop-color="#06A3FC"/>
<stop offset="1" stop-color="#06DEFC"/>
</linearGradient>
</defs>
</svg>
