<svg width="80" height="80" viewBox="0 0 80 80" fill="none" xmlns="http://www.w3.org/2000/svg">
<circle cx="40" cy="40" r="40" fill="#575958"/>
<path d="M64.7829 59.8888C64.758 59.8121 65.1385 60.7949 59.433 46.1273V18.4884C59.433 16.5649 58.1189 15 56.5037 15H23.4998C21.8846 15 20.5705 16.5649 20.5705 18.4884V46.127L15.2525 59.7874C14.8588 60.8 14.9013 62.2334 15.5522 63.3666C16.1397 64.3893 17.1116 65 18.1522 65H61.8469C64.0575 65 65.5869 62.3502 64.7829 59.8888ZM23.4998 18.4884H56.5037V44.7674H23.4998V18.4884ZM34.9635 61.5116L36.001 57.5581H44.0024L45.0398 61.5116H34.9635ZM61.8469 61.5116H48.109L46.4773 55.2937C46.2862 54.5656 45.7198 54.0698 45.0793 54.0698H34.9243C34.2836 54.0698 33.7174 54.5656 33.5263 55.2937L31.8945 61.5116H18.1522C17.9973 61.5116 17.9024 61.3366 17.9381 61.1828L22.9705 48.2558H57.0326L62.061 61.1827C62.0969 61.3363 62.002 61.5116 61.8469 61.5116Z" fill="url(#paint0_linear)"/>
<defs>
<linearGradient id="paint0_linear" x1="40" y1="15" x2="40" y2="65" gradientUnits="userSpaceOnUse">
<stop stop-color="#06A3FC"/>
<stop offset="0.505208" stop-color="#79DCFF"/>
<stop offset="1" stop-color="#01D6FF"/>
</linearGradient>
</defs>
</svg>
