<svg width="300" height="300" viewBox="0 0 300 300" fill="none" xmlns="http://www.w3.org/2000/svg">
<path d="M150 272C219.036 272 275 216.036 275 147C275 77.9644 219.036 22 150 22C80.9644 22 25 77.9644 25 147C25 216.036 80.9644 272 150 272Z" fill="#007AB9"/>
<path d="M224.686 157.058V208.593H194.808V160.512C194.808 148.44 190.494 140.195 179.676 140.195C171.42 140.195 166.516 145.746 164.35 151.12C163.563 153.041 163.361 155.708 163.361 158.402V208.591H133.48C133.48 208.591 133.881 127.158 133.48 118.728H163.363V131.463C163.303 131.563 163.218 131.661 163.164 131.757H163.363V131.463C167.333 125.353 174.415 116.618 190.291 116.618C209.949 116.618 224.686 129.462 224.686 157.058ZM102.222 75.4111C92.001 75.4111 85.3141 82.1204 85.3141 90.9353C85.3141 99.5631 91.8072 106.466 101.83 106.466H102.024C112.445 106.466 118.925 99.5631 118.925 90.9353C118.727 82.1204 112.445 75.4111 102.222 75.4111ZM87.09 208.593H116.96V118.728H87.09V208.593Z" fill="#F1F2F2"/>
</svg>
