<svg width="77" height="96" viewBox="0 0 77 96" fill="none" xmlns="http://www.w3.org/2000/svg">
<g id="linux 2">
<g id="linux">
<path id="Ellipse 24" d="M38.5 80C59.763 80 77 62.0914 77 40C77 17.9086 59.763 0 38.5 0C17.237 0 0 17.9086 0 40C0 62.0914 17.237 80 38.5 80Z" fill="#5D5E60"/>
<g id="linux 1">
<g id="Group">
<path id="Vector" d="M38.9026 21.7725C38.8933 21.6738 38.889 21.5752 38.889 21.4763C38.889 20.0291 39.8015 18.8517 40.9227 18.8517C42.07 18.8517 42.9688 20.0046 42.9688 21.4763C42.9688 21.8096 42.9206 22.1309 42.8307 22.4275C43.167 21.8723 43.3615 21.1736 43.3615 20.4411C43.3615 18.6813 42.2787 17.2493 40.948 17.2493C39.617 17.2493 38.5347 18.6811 38.5347 20.4411C38.5347 20.8738 38.5998 21.2973 38.7289 21.7035C38.7851 21.7258 38.8431 21.7488 38.9026 21.7725Z" fill="white"/>
<path id="Vector 2" d="M32.8945 18.9904C32.9672 18.9789 33.0337 18.9738 33.0999 18.9738C33.9923 18.9738 34.7925 19.8838 35.0023 21.1376C35.0234 21.275 35.0366 21.412 35.0425 21.5472C35.1005 21.5165 35.1593 21.4878 35.2194 21.4611C35.249 21.2438 35.2633 21.04 35.2633 20.8354C35.2633 19.2122 34.4355 17.8408 33.4563 17.8408C32.6222 17.8408 31.9193 18.7954 31.719 20.0846C31.9471 19.4966 32.3635 19.0821 32.8945 18.9904Z" fill="white"/>
<path id="Vector 3" d="M49.7002 51.732C49.9245 50.7435 50.371 48.2195 49.9484 45.1664C49.4145 41.3077 44.1885 29.2922 43.2892 27.9506C42.7646 28.0267 41.3706 28.8635 40.2401 29.5422C38.9293 30.3291 37.5733 31.143 36.6514 31.4195C36.4589 31.4762 36.2577 31.5042 36.0502 31.5042C34.7027 31.5042 33.2445 30.3206 32.3043 29.3885C32.14 31.1974 31.212 33.4928 30.2081 34.6725C29.5739 35.4282 29.007 37.1542 28.459 38.8238C27.9512 40.3696 27.4264 41.9685 26.7836 43.0227C25.4832 45.128 24.7372 49.2171 25.6836 51.5426C26.1414 52.6699 27.8034 54.0011 29.2696 55.1754C31.0629 56.6117 32.6114 57.852 32.7822 59.1027C32.9816 60.5816 32.2246 61.4013 31.4676 61.7898L33.3879 64.0726C33.6846 64.1195 34.3992 64.2091 35.5189 64.2091C36.8285 64.2091 38.2825 64.0901 39.8389 63.8549C43.6604 63.2667 46.322 59.9949 46.8484 59.3002C46.8512 58.3797 46.8783 54.2848 47.1367 53.0043C47.2371 52.5112 47.6224 51.6859 49.078 51.6859C49.3044 51.6856 49.5198 51.7062 49.7002 51.732Z" fill="white"/>
</g>
<g id="Group 2">
<path id="Vector 4" d="M33.0242 26.385C33.0992 26.6877 33.7624 27.4621 34.7939 28.1653C34.9404 28.2629 35.0778 28.36 35.2068 28.451C35.7791 28.855 36.0335 29.0208 36.4448 28.9632C37.0505 28.8808 39.2817 27.4752 40.2345 26.875L40.4716 26.7258C40.8264 26.5013 41.1101 26.3478 41.3379 26.2246C41.7891 25.9808 41.8299 25.9414 41.8491 25.8523C41.798 25.7146 41.3768 25.3454 40.5689 25.0568C40.3121 24.9614 39.9479 24.8101 39.5257 24.6352C38.6127 24.2563 37.362 23.7381 36.8552 23.645C36.8335 23.6406 36.8132 23.6392 36.7904 23.6392C36.3589 23.6392 35.4872 24.2016 34.621 25.0386C34.194 25.439 33.3605 26.1149 33.0242 26.385Z" fill="#E69629"/>
<path id="Vector 5" d="M25.4039 57.4411C25.0286 56.7883 24.7043 56.2242 24.5292 55.943C23.8388 54.8267 22.6409 53.5797 22.0698 53.5797C22.0198 53.5797 21.9935 53.5918 21.9764 53.6022C21.6716 53.7826 21.4155 54.332 21.1674 54.8629C20.8249 55.5971 20.4365 56.4296 19.7193 56.8811C19.1888 57.2155 18.3777 57.3982 17.5937 57.5754C17.0359 57.7013 15.7297 57.9957 15.6684 58.2707C15.5838 58.6416 15.6625 59.0248 15.7623 59.5098C15.8798 60.0821 16.0266 60.7941 15.9017 61.6682C15.8136 62.2165 15.6534 62.74 15.4982 63.2466C15.2824 63.9512 15.0378 64.7502 15.2487 64.9958C15.5088 65.2346 17.0782 65.4982 18.2241 65.6912C19.6645 65.9333 21.1538 66.1838 22.066 66.581L22.3076 66.6866C23.9414 67.3998 26.9823 68.7277 28.5184 68.7277C28.6583 68.7277 28.7773 68.716 28.8734 68.6934C29.1384 68.5083 30.2608 67.6706 30.4716 66.6405C30.7598 65.3131 29.5889 63.765 28.8657 62.96C28.0629 62.0645 26.5261 59.392 25.4039 57.4411Z" fill="#E69629"/>
<path id="Vector 6" d="M60.1277 60.6218L59.9404 60.5194C58.6545 59.8131 57.9785 57.8963 58.0679 56.4515C58.0847 56.1854 58.0528 55.979 58.0009 55.821C57.7635 56.2269 57.4244 56.7395 57.0214 57.1581C56.3365 57.8696 54.6652 58.6373 53.1587 58.6373C52.5968 58.6373 52.0846 58.5344 51.6364 58.3312C50.1328 57.6498 49.9278 55.6962 49.924 54.7166C49.9016 54.723 49.8813 54.7306 49.8631 54.7395C49.7713 55.0771 49.8604 56.2152 49.9204 56.9813C49.9524 57.3912 49.9856 57.815 50.0051 58.2038C50.0903 59.9173 49.565 62.8235 49.1091 64.96C48.6764 67.0514 49.4818 68.5179 50.4596 68.8346C50.5473 68.8635 50.6462 68.8778 50.7546 68.8778C51.6555 68.8778 53.1472 67.9091 54.466 66.4672C55.4031 65.4435 57.4886 64.3371 59.3286 63.361C60.3659 62.8107 61.4385 62.2414 61.7435 61.952C61.8112 61.8864 61.8214 61.8498 61.8217 61.8494C61.8024 61.5352 60.5857 60.8715 60.1277 60.6218Z" fill="#E69629"/>
</g>
<path id="Vector 7" d="M63.1724 59.3864C61.3659 58.6181 60.5932 57.5979 60.6678 56.0758C60.7448 54.2994 59.7748 52.9982 59.314 52.4842C59.5925 51.3795 60.4057 47.5584 59.315 44.2394C58.1427 40.6869 54.5639 35.2613 50.8711 29.9278C49.3593 27.7376 49.2879 25.3566 49.2053 22.5998C49.126 19.9704 49.0368 16.9898 47.6254 13.6765C46.0908 10.0687 43.0116 8 39.1768 8C36.8956 8 34.5541 8.74075 32.7521 10.0321C29.0621 12.678 29.5498 18.4466 29.8726 22.2635C29.917 22.7862 29.9584 23.28 29.9827 23.7014C30.1976 27.44 30.0021 29.4104 29.7465 30.0093C29.5811 30.4006 28.7667 31.5144 27.905 32.6938C27.0138 33.9136 26.0032 35.2958 25.175 36.5838C24.1868 38.1341 23.3889 40.5032 22.6175 42.7944C22.053 44.4707 21.5198 46.0544 21.0007 47.0013C20.0169 48.8218 20.2618 50.5194 20.4661 51.304C20.0936 51.5726 19.5555 52.1022 19.1014 53.0997C18.5524 54.3166 17.4385 54.9706 15.1224 55.4333C14.058 55.6595 13.3241 56.1245 12.9403 56.8154C12.3818 57.8206 12.6861 59.0838 12.9635 59.9474C13.3736 61.2162 13.118 62.0194 12.6535 63.4781C12.5464 63.8144 12.425 64.1957 12.3021 64.6158C12.1084 65.2792 12.1783 65.8821 12.5092 66.4083C13.3839 67.7974 15.9364 68.2875 18.5641 68.6101C20.1329 68.8035 21.85 69.4554 23.5109 70.0861C25.138 70.7037 26.8207 71.3427 28.3502 71.5366C28.5826 71.567 28.8128 71.5821 29.0349 71.5821C31.3441 71.5821 32.3874 69.9902 32.7182 69.3363C33.5477 69.1603 36.4087 68.5973 39.3572 68.5214C42.3012 68.4344 45.1494 69.0384 45.9564 69.2259C46.21 69.7304 46.8788 70.8826 47.9447 71.4763C48.5306 71.8091 49.3461 71.9998 50.1811 71.9998C50.1814 71.9998 50.1811 71.9998 50.1814 71.9998C51.0732 71.9998 52.77 71.7808 54.1128 70.3128C55.4523 68.8382 58.7989 66.9554 61.2427 65.5808C61.788 65.2741 62.2982 64.9869 62.7455 64.728C64.1182 63.9374 64.8674 62.8078 64.8006 61.6288C64.7447 60.6491 64.1208 59.7901 63.1724 59.3864ZM40.9475 17.2493C42.2782 17.2493 43.361 18.6813 43.361 20.4413C43.361 21.1736 43.1664 21.8723 42.8302 22.4277C42.9198 22.1309 42.9683 21.8098 42.9683 21.4765C42.9683 20.0046 42.0696 18.8518 40.9221 18.8518C39.8008 18.8518 38.8886 20.0293 38.8886 21.4765C38.8886 21.5754 38.8932 21.6739 38.9019 21.7726C38.8425 21.7491 38.7846 21.7258 38.7281 21.7035C38.599 21.2973 38.5339 20.8738 38.5339 20.4413C38.5339 18.6813 39.6165 17.2493 40.9475 17.2493ZM36.855 23.6454C37.362 23.7384 38.6123 24.257 39.5255 24.6357C39.9476 24.8107 40.3123 24.9619 40.5687 25.0574C41.3766 25.3459 41.7979 25.715 41.8489 25.853C41.8298 25.9421 41.7888 25.9813 41.3376 26.2251C41.1098 26.3483 40.8263 26.5016 40.4715 26.7262L40.2344 26.8755C39.2814 27.476 37.0503 28.8816 36.4446 28.9638C36.0331 29.0213 35.7787 28.8554 35.2066 28.4515C35.0775 28.3603 34.9401 28.2634 34.7938 28.1658C33.7624 27.4624 33.0988 26.6883 33.0241 26.3856C33.3603 26.1155 34.1939 25.4395 34.6206 25.0392C35.4868 24.2022 36.3585 23.64 36.7898 23.64C36.8128 23.6395 36.8334 23.6411 36.855 23.6454ZM33.4554 17.8405C34.435 17.8405 35.2625 19.2117 35.2625 20.835C35.2625 21.0398 35.2481 21.2435 35.2186 21.4608C35.1585 21.4875 35.0997 21.5165 35.0416 21.5469C35.0358 21.4115 35.0222 21.2747 35.0014 21.1371C34.7918 19.8835 33.9915 18.9733 33.0991 18.9733C33.033 18.9733 32.9666 18.9786 32.8936 18.9901C32.3628 19.0819 31.9462 19.4962 31.718 20.084C31.9185 18.7949 32.6215 17.8405 33.4554 17.8405ZM30.4715 66.6408C30.2605 67.6709 29.138 68.5085 28.8733 68.6938C28.7771 68.7163 28.6582 68.728 28.5182 68.728C26.982 68.728 23.9412 67.4002 22.3075 66.6869L22.0657 66.5811C21.1534 66.1838 19.6643 65.9336 18.2239 65.6914C17.078 65.4986 15.5087 65.2347 15.2485 64.9962C15.0376 64.7504 15.2822 63.9514 15.498 63.2467C15.6532 62.7403 15.8137 62.2166 15.9014 61.6685C16.026 60.7942 15.8797 60.0821 15.7621 59.5101C15.6624 59.025 15.5836 58.6419 15.6681 58.2709C15.7296 57.996 17.0356 57.7016 17.5934 57.5757C18.3778 57.3986 19.1889 57.2158 19.7192 56.8813C20.4364 56.4299 20.8247 55.5976 21.1673 54.863C21.4152 54.3322 21.6714 53.7829 21.9761 53.6026C21.9934 53.5918 22.0195 53.58 22.0696 53.58C22.6406 53.58 23.8386 54.8269 24.529 55.9434C24.7041 56.2245 25.0284 56.7883 25.4037 57.4413C26.526 59.3925 28.0628 62.0646 28.8655 62.9602C29.5886 63.7651 30.7594 65.3133 30.4715 66.6408ZM47.1366 53.0045C46.8785 54.2848 46.8513 58.3798 46.8484 59.3002C46.322 59.9949 43.6602 63.2667 39.8389 63.8549C38.2823 64.0899 36.8288 64.2091 35.5187 64.2091C34.399 64.2091 33.6846 64.1192 33.3878 64.0728L31.4676 61.7899C32.2245 61.4013 32.9816 60.5816 32.7821 59.1027C32.6114 57.8522 31.0627 56.6118 29.2696 55.1754C27.8033 54.0011 26.1414 52.6702 25.6834 51.5427C24.7372 49.2174 25.4832 45.1283 26.7835 43.0229C27.4262 41.9686 27.9512 40.3698 28.4589 38.8238C29.007 37.1544 29.574 35.4282 30.208 34.6726C31.212 33.493 32.1398 31.1976 32.3041 29.3885C33.2443 30.3208 34.7027 31.5043 36.05 31.5043C36.2575 31.5043 36.4589 31.4762 36.6512 31.4197C37.5731 31.143 38.9289 30.3291 40.2401 29.5422C41.3706 28.8637 42.7644 28.0267 43.2891 27.9507C44.1883 29.2925 49.4143 41.3078 49.9484 45.1664C50.3708 48.2195 49.9245 50.7435 49.7001 51.732C49.5195 51.7064 49.3043 51.6858 49.0781 51.6858C47.6224 51.6858 47.2369 52.5114 47.1366 53.0045ZM61.7434 61.9525C61.4386 62.2418 60.3659 62.811 59.3285 63.3613C57.4884 64.3373 55.4026 65.4438 54.466 66.4675C53.1471 67.9094 51.6555 68.8781 50.7546 68.8781C50.6463 68.8781 50.5474 68.8638 50.4595 68.8349C49.4816 68.5182 48.6763 67.0517 49.1091 64.9603C49.5651 62.8237 50.09 59.9176 50.005 58.2042C49.9855 57.8152 49.9524 57.3914 49.9203 56.9818C49.8603 56.2158 49.7713 55.0776 49.8631 54.7398C49.8812 54.7309 49.9016 54.7234 49.9239 54.717C49.9277 55.6965 50.1326 57.6502 51.6364 58.3315C52.0845 58.5347 52.5967 58.6376 53.1587 58.6376C54.6651 58.6376 56.3364 57.8699 57.0213 57.1584C57.4243 56.7398 57.7634 56.2272 58.0009 55.8213C58.0528 55.9794 58.0848 56.1858 58.0679 56.4518C57.9784 57.8965 58.6541 59.8131 59.9403 60.5195L60.1276 60.6219C60.5856 60.8714 61.8022 61.5354 61.8219 61.8499C61.8213 61.8499 61.8111 61.8869 61.7434 61.9525Z" fill="black"/>
</g>
<g id="Component 3">
<path id="Ellipse 27" d="M56.98 96C65.4851 96 72.38 88.8366 72.38 80C72.38 71.1634 65.4851 64 56.98 64C48.4748 64 41.58 71.1634 41.58 80C41.58 88.8366 48.4748 96 56.98 96Z" fill="#009EFF"/>
<g id="facebook 1">
<g id="Group_2">
<g id="Group 3">
<g id="Layer 1 4">
<g id="Group 4">
<path id="Vector 8" d="M68.185 79.044L65.9595 79.0435C65.3452 79.044 64.8464 79.5613 64.8453 80.1997V89.9854C64.8453 90.6248 65.3452 91.1426 65.9595 91.1426H68.185C68.8004 91.1426 69.2998 90.6248 69.2998 89.9854V80.2018C69.2998 79.5624 68.8004 79.044 68.185 79.044ZM67.2979 89.9339C66.9411 90.3051 66.3625 90.3051 66.0057 89.9339C65.6489 89.5627 65.6489 88.9627 66.0057 88.592C66.3625 88.2202 66.9416 88.2202 67.2979 88.592C67.6543 88.9622 67.6543 89.5627 67.2979 89.9339Z" fill="white"/>
<path id="Vector 9" d="M60.4915 72.2016C60.5883 70.7262 60.9678 69.9797 61.0999 68.5229C61.1757 67.6926 60.3387 67.257 58.8159 67.257C57.2933 67.257 56.7035 68.673 56.5315 69.1555C56.1511 70.2238 56.5315 73.7437 56.5315 75.4845C56.5315 76.856 54.1699 77.6086 51.4677 77.6133C47.7506 77.621 46.2 76.6978 46.2 79.1206C46.2 79.9592 46.6978 80.6389 47.3132 80.6382C46.6978 80.6382 46.1995 81.3195 46.2 82.157C46.2 82.9944 46.6978 83.6755 47.3132 83.6741C46.6978 83.675 46.2004 84.3547 46.2 85.1912C46.2 86.0312 46.6988 86.7093 47.3132 86.7103C46.6988 86.7093 46.2 87.3894 46.2004 88.2294C46.2004 89.0685 46.6983 89.747 47.3132 89.747C47.3132 89.747 48.8953 89.7486 54.8963 89.7486C60.8974 89.7486 63.0901 89.7486 63.0901 89.7486C63.3971 89.7486 63.6458 89.4898 63.6463 89.1696V80.3845C63.6469 80.291 63.6243 80.1997 63.583 80.117C63.5824 80.117 60.2246 76.2754 60.4915 72.2016Z" fill="#FEFCFC"/>
</g>
</g>
</g>
</g>
</g>
</g>
</g>
</g>
</svg>
