<svg width="129" height="129" viewBox="0 0 80 80" fill="none" xmlns="http://www.w3.org/2000/svg">
<g id="organis&#195;&#169;">
<circle id="Ellipse 52" cx="40" cy="40" r="40" fill="url(#paint0_radial)"/>
<g id="Calque 8" filter="url(#filter0_d)">
<g id="Group">
<path id="Vector" d="M30.6024 36.2873C21.5878 36.2873 14.252 30.3908 14.252 23.1422C14.252 15.8965 21.5878 10 30.6024 10C39.6205 10 46.9563 15.8965 46.9563 23.1422C46.9528 30.3908 39.6169 36.2873 30.6024 36.2873ZM30.6024 11.4862C22.6064 11.4862 16.0975 16.7152 16.0975 23.1451C16.0975 29.575 22.6028 34.8039 30.6024 34.8039C38.6019 34.8039 45.1073 29.5721 45.1073 23.1451C45.1073 16.7152 38.5983 11.4862 30.6024 11.4862Z" fill="#232020" stroke="white" stroke-width="3" stroke-miterlimit="10"/>
<path id="Vector_2" d="M39.1163 63.5673H10.9227C10.4117 63.5673 10 63.2363 10 62.8256V51.6802C10 42.3748 19.4191 34.8039 30.9961 34.8039C38.9708 34.8039 46.1576 38.3611 49.7528 44.0893C49.9834 44.4544 49.7989 44.9023 49.3446 45.0877C48.8868 45.2731 48.3331 45.1248 48.106 44.7597C44.8267 39.5364 38.2716 36.2901 30.9996 36.2901C20.4413 36.2901 11.8526 43.1936 11.8526 51.6802V62.0839H39.1198C39.6309 62.0839 40.0426 62.4148 40.0426 62.8256C40.039 63.2363 39.6274 63.5673 39.1163 63.5673Z" fill="#232020" stroke="white" stroke-width="3" stroke-miterlimit="10"/>
</g>
<g id="Group_2">
<g id="Group_3">
<path id="Vector_3" d="M53.8768 70C44.9865 70 37.75 64.1863 37.75 57.0404C37.75 49.8944 44.9829 44.0779 53.8768 44.0779C62.7672 44.0779 70.0001 49.8916 70.0001 57.0404C70.0001 64.1834 62.7672 70 53.8768 70ZM53.8768 44.7796C45.4692 44.7796 38.6266 50.2795 38.6266 57.0375C38.6266 63.7954 45.4692 69.2954 53.8768 69.2954C62.2845 69.2954 69.127 63.7954 69.127 57.0375C69.127 50.2795 62.2845 44.7796 53.8768 44.7796Z" fill="#232020" stroke="white" stroke-width="4" stroke-miterlimit="10"/>
</g>
</g>
<g id="Calque 9">
<g id="Group_4">
<path id="Vector_4" d="M48.337 58.6436C47.2581 58.6436 46.3779 57.9361 46.3779 57.0689C46.3779 56.2017 47.2581 55.4942 48.337 55.4942C49.4159 55.4942 50.2961 56.2017 50.2961 57.0689C50.2961 57.9361 49.4159 58.6436 48.337 58.6436ZM48.337 55.8194C47.4817 55.8194 46.7861 56.3786 46.7861 57.0661C46.7861 57.7535 47.4817 58.3127 48.337 58.3127C49.1923 58.3127 49.8915 57.7535 49.8915 57.0661C49.8879 56.3786 49.1923 55.8194 48.337 55.8194Z" fill="white" stroke="white"/>
<path id="Vector_5" d="M59.1544 54.2875C58.0755 54.2875 57.1953 53.5801 57.1953 52.7129C57.1953 51.8457 58.0755 51.1382 59.1544 51.1382C60.2333 51.1382 61.1134 51.8457 61.1134 52.7129C61.1134 53.5829 60.2368 54.2875 59.1544 54.2875ZM59.1544 51.4663C58.2991 51.4663 57.6034 52.0254 57.6034 52.7129C57.6034 53.4004 58.2991 53.9595 59.1544 53.9595C60.0097 53.9595 60.7089 53.4004 60.7089 52.7129C60.7089 52.0254 60.0097 51.4663 59.1544 51.4663Z" fill="white" stroke="white"/>
<path id="Vector_6" d="M59.1544 62.8855C58.0755 62.8855 57.1953 62.178 57.1953 61.3108C57.1953 60.4436 58.0755 59.7361 59.1544 59.7361C60.2333 59.7361 61.1134 60.4436 61.1134 61.3108C61.1134 62.178 60.2368 62.8855 59.1544 62.8855ZM59.1544 60.0642C58.2991 60.0642 57.6034 60.6233 57.6034 61.3108C57.6034 61.9983 58.2991 62.5574 59.1544 62.5574C60.0097 62.5574 60.7089 61.9983 60.7089 61.3108C60.7089 60.6233 60.0097 60.0642 59.1544 60.0642Z" fill="white" stroke="white"/>
<path id="Vector_7" d="M49.9056 56.6011C49.831 56.6011 49.7601 56.5668 49.7246 56.5098C49.6749 56.4299 49.7139 56.3301 49.8168 56.2901L57.497 53.2007C57.5963 53.1607 57.7206 53.1921 57.7702 53.2749C57.8199 53.3547 57.7809 53.4546 57.678 53.4945L49.9979 56.5868C49.9659 56.5954 49.934 56.6011 49.9056 56.6011Z" fill="white" stroke="white"/>
<path id="Vector_8" d="M57.5783 60.8572C57.5499 60.8572 57.5179 60.8515 57.4895 60.8401L49.8875 57.8591C49.7881 57.8191 49.7455 57.7221 49.7952 57.6394C49.8449 57.5595 49.9656 57.5253 50.065 57.5652L57.667 60.5463C57.7664 60.5862 57.809 60.6832 57.7593 60.7659C57.7273 60.823 57.6528 60.8572 57.5783 60.8572Z" fill="white" stroke="white"/>
</g>
</g>
</g>
</g>
<defs>
<filter id="filter0_d" x="4.5" y="8.5" width="71.5001" height="71.5" filterUnits="userSpaceOnUse" color-interpolation-filters="sRGB">
<feFlood flood-opacity="0" result="BackgroundImageFix"/>
<feColorMatrix in="SourceAlpha" type="matrix" values="0 0 0 0 0 0 0 0 0 0 0 0 0 0 0 0 0 0 127 0"/>
<feOffset dy="4"/>
<feGaussianBlur stdDeviation="2"/>
<feColorMatrix type="matrix" values="0 0 0 0 0 0 0 0 0 0 0 0 0 0 0 0 0 0 0.25 0"/>
<feBlend mode="normal" in2="BackgroundImageFix" result="effect1_dropShadow"/>
<feBlend mode="normal" in="SourceGraphic" in2="effect1_dropShadow" result="shape"/>
</filter>
<radialGradient id="paint0_radial" cx="0" cy="0" r="1" gradientUnits="userSpaceOnUse" gradientTransform="translate(12.6667 67.3333) rotate(-40.6013) scale(76.8295)">
<stop stop-color="#06DEFC"/>
<stop offset="0.475958" stop-color="#06D1EC"/>
<stop offset="1" stop-color="#06A3FC"/>
</radialGradient>
</defs>
</svg>
