<svg width="60" height="60" viewBox="0 0 60 60" fill="none" xmlns="http://www.w3.org/2000/svg">
<path d="M27.0556 33.8031C23.7832 30.5305 23.0444 27.258 22.8777 25.9468C22.8311 25.5843 22.9559 25.2207 23.2152 24.9632L25.8633 22.3161C26.2529 21.9267 26.322 21.32 26.03 20.853L21.8137 14.3055C21.4907 13.7884 20.8274 13.6018 20.2822 13.8746L13.5135 17.0626C13.0726 17.2797 12.8132 17.7482 12.8633 18.2372C13.218 21.6067 14.6868 29.8897 22.8263 38.0303C30.9657 46.1709 39.247 47.6393 42.618 47.994C43.1069 48.044 43.5754 47.7847 43.7925 47.3437L46.9803 40.5746C47.2521 40.0305 47.0667 39.3689 46.5518 39.0453L40.0048 34.8299C39.5381 34.5376 38.9314 34.6062 38.5418 34.9954L35.8949 37.6437C35.6373 37.9031 35.2738 38.0278 34.9113 37.9813C33.6002 37.8146 30.3279 37.0756 27.0556 33.8031V33.8031Z" fill="#00B1FD"/>
<path d="M40.0497 32.0396C39.3968 32.0396 38.8675 31.5103 38.8675 30.8574C38.862 25.9625 34.8956 21.9958 30.001 21.9903C29.3481 21.9903 28.8188 21.461 28.8188 20.808C28.8188 20.1551 29.3481 19.6257 30.001 19.6257C36.2008 19.6326 41.2251 24.6571 41.2319 30.8574C41.2319 31.5103 40.7026 32.0396 40.0497 32.0396Z" fill="#00B1FD"/>
<path d="M45.9607 32.0397C45.3078 32.0397 44.7785 31.5103 44.7785 30.8574C44.7694 22.6992 38.1586 16.088 30.001 16.0789C29.3481 16.0789 28.8188 15.5496 28.8188 14.8966C28.8188 14.2437 29.3481 13.7144 30.001 13.7144C39.4639 13.7248 47.1324 21.3939 47.1429 30.8574C47.1429 31.171 47.0183 31.4717 46.7966 31.6934C46.5749 31.9151 46.2742 32.0397 45.9607 32.0397Z" fill="#00B1FD"/>
</svg>
