<svg width="100" height="100" viewBox="0 0 100 100" fill="none" xmlns="http://www.w3.org/2000/svg">
<g id="photoshop 1" clip-path="url(#clip0)">
<path id="Vector" d="M2.0834 0H97.9168C99.0672 0 100 0.932813 100 2.0834V97.9168C100 99.0674 99.0672 100 97.9166 100H2.0834C0.932813 100 0 99.0672 0 97.9166V2.0834C0 0.932813 0.932813 0 2.0834 0Z" fill="#90CAF9"/>
<path id="Vector_2" d="M10.4167 8.3334H89.5833C90.7338 8.3334 91.6667 9.26621 91.6667 10.4168V89.5834C91.6667 90.734 90.7338 91.6668 89.5833 91.6668H10.4167C9.26606 91.6668 8.33325 90.734 8.33325 89.5834V10.4166C8.33345 9.26602 9.26606 8.3334 10.4167 8.3334Z" fill="#283593"/>
<g id="Group">
<path id="Vector_3" d="M31.25 70.8334C30.0994 70.8334 29.1666 69.9006 29.1666 68.75V31.25C29.1572 30.2002 29.9303 29.3072 30.9707 29.1666C37.0666 28.3332 45.3666 28.2625 50.3332 32.6082C52.9099 34.8963 54.318 38.2238 54.1666 41.6666C54.1226 45.8918 51.8889 49.7912 48.2666 51.9666C43.8146 54.7365 38.4992 55.7717 33.3332 54.875V68.75C33.3334 69.9006 32.4006 70.8334 31.25 70.8334ZM33.3334 50.6084C37.6656 51.5643 42.1998 50.8041 45.9834 48.4875C48.4443 47.0945 49.9756 44.4945 50 41.6666C50.1353 39.435 49.2492 37.2627 47.5916 35.7625C43.3605 33.068 38.251 32.1152 33.3332 33.1041V50.6084H33.3334Z" fill="#90CAF9"/>
<path id="Vector_4" d="M66.8416 70.9291C63.9762 70.9502 61.1928 69.9719 58.9707 68.1625C58.1434 67.357 58.1258 66.0336 58.931 65.2062C59.7365 64.3789 61.06 64.3613 61.8873 65.1666C63.8957 66.6537 66.484 67.116 68.8832 66.4166C69.3707 66.2082 70.8582 65.5832 70.8582 62.5125C70.8582 59.7584 69.3748 58.9791 65.7291 57.7416C62.5916 56.6666 58.3332 55.2332 58.3332 50C58.1236 46.7551 59.9816 43.7301 62.9707 42.45C66.8223 40.9623 71.1775 41.6783 74.3498 44.3209C75.1863 45.1113 75.2236 46.4303 74.4332 47.2668C73.6428 48.1033 72.3238 48.1406 71.4873 47.3502C69.5254 45.8582 66.9437 45.4555 64.6207 46.2793C63.1756 46.9215 62.3162 48.4291 62.5 50C62.5 52.0541 63.75 52.6709 67.0375 53.7875C70.4166 54.925 75 56.4834 75 62.5C75.3201 65.783 73.5019 68.9021 70.4875 70.2416C69.3305 70.7123 68.0906 70.9461 66.8416 70.9291Z" fill="#90CAF9"/>
</g>
</g>
<defs>
<clipPath id="clip0">
<rect width="100" height="100" fill="white"/>
</clipPath>
</defs>
</svg>
