<svg width="75" height="88" viewBox="0 0 75 88" fill="none" xmlns="http://www.w3.org/2000/svg">
<g id="php 1">
<path id="Vector" d="M75 36.6667C75 38.8846 74.798 41.0563 74.4123 43.1649C71.2761 60.3159 55.9423 73.3333 37.5 73.3333C23.605 73.3333 11.475 65.9446 4.99746 54.9657C3.41631 52.2883 2.17353 49.3984 1.32246 46.3497C0.459228 43.2652 0 40.0176 0 36.6667C0 16.4163 16.7893 0 37.5 0C54.5938 0 69.0153 11.1826 73.5321 26.4748C74.4873 29.7104 75 33.1302 75 36.6667Z" fill="#8F9ED1"/>
<path id="Vector_2" d="M19.0683 25.5288H5.25754L1.32239 46.3495C2.17345 49.3981 3.41623 52.288 4.99738 54.9654H6.27853L7.803 46.9018H15.3918C24.632 46.9018 27.1163 38.7903 27.7118 34.8062C28.3086 30.8238 25.3286 25.5288 19.0683 25.5288ZM21.0718 35.4781C20.7336 37.7365 19.0269 42.3355 13.7892 42.3355H8.66623L10.9561 30.2176H16.1709C21.2541 30.2176 21.4101 33.2199 21.0718 35.4781Z" fill="#F2F2F2"/>
<path id="Vector_3" d="M73.5319 26.4747C72.358 25.882 70.959 25.5288 69.3426 25.5288H55.5319L49.9681 54.9655H56.5528L58.0773 46.902H65.6661C69.7758 46.902 72.5491 45.2976 74.4118 43.1649C74.7979 41.0561 74.9998 38.8846 74.9998 36.6665C74.9998 33.1301 74.4871 29.7104 73.5319 26.4747ZM71.3463 35.4782C71.008 37.7366 69.3013 42.3356 64.062 42.3356H58.9407L61.2304 30.2177H66.4453C71.5285 30.2177 71.6845 33.22 71.3463 35.4782Z" fill="#F2F2F2"/>
<path id="Vector_4" d="M45.2983 25.6263C42.6184 25.6263 39.0429 25.6263 37.3008 25.6263L38.8018 17.6842H32.2444L26.6805 47.12H33.238L36.4377 30.1924C37.6198 30.1924 39.19 30.1924 40.6285 30.1924C43.4104 30.1924 45.2983 30.7754 44.9007 33.3011C44.5033 35.827 42.2182 46.999 42.2182 46.999H48.8751C48.8751 46.999 51.4582 34.5642 51.8557 31.0666C52.2532 27.5692 48.9745 25.6263 45.2983 25.6263Z" fill="#F2F2F2"/>
<path id="Vector_5" d="M73.5 73.3333C73.5 81.4336 66.7843 88 58.5 88C50.2156 88 43.5 81.4336 43.5 73.3333C43.5 65.2331 50.2156 58.6667 58.5 58.6667C66.7843 58.6667 73.5 65.2331 73.5 73.3333Z" fill="#08BB0F"/>
<path id="Vector_6" d="M67.6192 68.4561L56.9659 79.4209L51 73.3245L53.429 70.8683L56.9659 74.4649L65.1903 66L67.6192 68.4561Z" fill="#D4E1F4"/>
</g>
</svg>
