<svg width="80" height="80" viewBox="0 0 80 80" fill="none" xmlns="http://www.w3.org/2000/svg">
<circle cx="40" cy="40" r="40" fill="#575958"/>
<path d="M64.997 36.8252C64.8993 34.4431 62.395 32.5781 59.4261 32.5781H51.5074L46.6397 26.7164C46.6776 26.7169 46.7151 26.7188 46.7532 26.7188C50.8934 26.7188 54.2395 23.937 54.0438 20.5794C53.8689 17.5806 50.8374 15.1469 47.1019 15.0066C42.9196 14.8493 39.4544 17.5356 39.4544 20.8593C39.4544 21.9469 39.8267 22.9655 40.4725 23.8394C39.8603 23.9124 39.279 24.066 38.7467 24.2887C38.1104 23.5644 37.1993 22.992 36.0977 22.6789L32.6577 21.701C29.8056 20.8901 26.6804 22.0868 25.6704 24.3765L22.6009 31.335C20.0292 30.9865 17.4324 32.1606 16.5325 34.2007L15.3143 36.9624C14.3068 39.2466 15.8019 41.7629 18.6472 42.5717L25.5272 44.5276C26.4804 44.7986 27.4994 44.8576 28.5064 44.682V51.6102C28.5064 52.0999 28.2015 52.5574 27.694 52.829L19.9962 56.9487C17.4792 58.295 16.7994 61.0209 18.4781 63.0434C20.1612 65.0685 23.5648 65.6037 26.0686 64.2617L37.0168 58.4024C38.5396 57.5873 39.4544 56.2152 39.4544 54.7458V49.9428L43.1038 51.4077V60.5275C43.1038 62.9864 45.6104 65.0413 48.673 64.9992C51.6477 64.9583 54.0519 63.0029 54.0519 60.6054V48.6913C54.0519 47.0157 52.8921 45.5093 51.0252 44.76L40.9331 40.7097L42.4971 37.5718L44.0229 39.4097C45.0381 40.6325 46.7474 41.3671 48.5778 41.3671H57.7013V63.4936C57.7013 64.2823 58.4563 64.961 59.4378 64.9982C60.4856 65.0378 61.3506 64.3675 61.3506 63.535V41.1151C63.5288 40.4949 65.0779 38.798 64.997 36.8252ZM43.1157 20.6205C43.2566 19.2016 44.6883 18.0522 46.4557 17.9392C48.7016 17.7955 50.5697 19.2952 50.3907 21.0982C50.2499 22.517 48.8181 23.6664 47.0507 23.7795C44.8049 23.9232 42.9368 22.4234 43.1157 20.6205ZM29.1104 25.3544C29.447 24.5912 30.4888 24.1924 31.4394 24.4626L34.8794 25.4405C35.5901 25.6426 36.0621 26.1673 36.093 26.7568L32.4519 34.0643L26.0685 32.2497L29.1104 25.3544ZM26.7452 41.7659L19.8652 39.81C18.9167 39.5404 18.4183 38.7016 18.7542 37.9402L19.9724 35.1786C20.3082 34.4172 21.3534 34.0172 22.3014 34.2867C23.0078 34.4875 30.3899 36.5861 31.0954 36.7867L28.9492 41.0941C28.5255 41.7117 27.6008 42.009 26.7452 41.7659ZM35.805 54.7458C35.805 55.2368 35.5013 55.6924 34.9925 55.9647L24.0434 61.8246C23.2055 62.2737 22.0717 62.0888 21.5144 61.4181C20.9555 60.7448 21.1806 59.8356 22.0202 59.3866L30.5306 54.8318C31.5459 54.2884 32.1557 53.3737 32.1557 52.3941V47.013L35.805 48.4779V54.7458ZM59.526 38.4374H48.5778C47.9677 38.4374 47.398 38.1926 47.0596 37.7849L43.6101 33.6296C43.2343 33.1769 42.5765 32.9289 41.903 32.9849C41.229 33.0412 40.6493 33.3928 40.3977 33.8977L36.921 40.8729C36.5685 41.5803 36.9502 42.3866 37.7992 42.7273L49.3934 47.3804C50.0119 47.6287 50.4025 48.1361 50.4025 48.6913V60.5628C50.4025 61.3506 49.6499 62.0295 48.6698 62.0683C47.6221 62.1098 46.7532 61.4374 46.7532 60.6053V50.5023C46.7532 49.9474 46.3627 49.4402 45.7445 49.1921L33.1641 44.1424C32.3288 43.8071 31.9433 43.0033 32.2777 42.3052C32.2777 42.3051 39.65 27.5235 39.65 27.5235C40.2612 26.5524 41.9969 26.4071 42.7972 27.371L49.0126 34.8555C49.351 35.263 49.9208 35.5077 50.5309 35.5077H59.473C60.4544 35.5077 61.3 36.1119 61.3483 36.8987C61.4 37.7398 60.5625 38.4374 59.526 38.4374Z" fill="url(#paint0_linear)"/>
<defs>
<linearGradient id="paint0_linear" x1="40" y1="15" x2="40" y2="65" gradientUnits="userSpaceOnUse">
<stop stop-color="#0286FF"/>
<stop offset="0.515625" stop-color="#77CEFD"/>
<stop offset="1" stop-color="#04C2FE"/>
</linearGradient>
</defs>
</svg>
