<svg width="140" height="140" viewBox="0 0 140 140" fill="none" xmlns="http://www.w3.org/2000/svg">
<g id="responsive" filter="url(#filter0_d)">
<g id="Ellipse 32">
<circle cx="66" cy="66" r="60" fill="url(#paint0_radial)"/>
<circle cx="66" cy="66" r="57.5" stroke="#01FFF0" stroke-opacity="0.2" stroke-width="5"/>
</g>
<g id="Group" filter="url(#filter1_d)">
<path id="Vector" d="M102.488 31H48.8331C47.5623 31 46.532 32.0698 46.532 33.3906V42.0327C46.532 42.6447 47.0079 43.1377 47.5918 43.1377C48.1756 43.1377 48.6515 42.6447 48.6515 42.0327V33.2057H102.876V66.8629H61.5502C60.9663 66.8629 60.4904 67.356 60.4904 67.9679C60.4904 68.5799 60.9663 69.0729 61.5502 69.0729H102.876V74.4352H60.8534C60.2696 74.4352 59.7937 74.9283 59.7937 75.5402C59.7937 76.1522 60.2696 76.6453 60.8534 76.6453H67.4425V84.6226H62.5559C61.9671 84.6226 61.4961 85.1157 61.4961 85.7277C61.4961 86.3396 61.9721 86.8327 62.5559 86.8327H88.8732C89.4619 86.8327 89.933 86.3396 89.933 85.7277C89.933 85.1157 89.457 84.6226 88.8732 84.6226H84.119V76.6453H102.797C104.014 76.6453 105 75.6195 105 74.3516V33.6195C105.005 32.1711 103.877 31 102.488 31ZM81.9995 84.6226H69.5719V76.6453H81.9995V84.6226Z" fill="white"/>
<path id="Vector_2" d="M54.4653 48.5044H29.1293C27.9518 48.5044 27 49.495 27 50.7233V98.7812C27 100.005 27.9518 101 29.1293 101H54.4653C55.6428 101 56.5946 100.009 56.5946 98.7812V50.7233C56.5946 49.4994 55.6379 48.5044 54.4653 48.5044ZM54.4702 98.7899H29.1195V92.2478H54.4702V98.7899ZM54.4702 90.0377H29.1195V50.7189H54.4702V90.0377Z" fill="white"/>
<path id="Vector_3" d="M40.0017 96.6062H43.5833C44.172 96.6062 44.643 96.1131 44.643 95.5012C44.643 94.8892 44.1671 94.3961 43.5833 94.3961H40.0017C39.4178 94.3961 38.9419 94.8892 38.9419 95.5012C38.9419 96.1131 39.4178 96.6062 40.0017 96.6062Z" fill="white"/>
</g>
</g>
<defs>
<filter id="filter0_d" x="0" y="0" width="140" height="140" filterUnits="userSpaceOnUse" color-interpolation-filters="sRGB">
<feFlood flood-opacity="0" result="BackgroundImageFix"/>
<feColorMatrix in="SourceAlpha" type="matrix" values="0 0 0 0 0 0 0 0 0 0 0 0 0 0 0 0 0 0 127 0"/>
<feOffset dx="4" dy="4"/>
<feGaussianBlur stdDeviation="5"/>
<feColorMatrix type="matrix" values="0 0 0 0 0 0 0 0 0 0 0 0 0 0 0 0 0 0 0.25 0"/>
<feBlend mode="normal" in2="BackgroundImageFix" result="effect1_dropShadow"/>
<feBlend mode="normal" in="SourceGraphic" in2="effect1_dropShadow" result="shape"/>
</filter>
<filter id="filter1_d" x="23" y="31" width="86.0001" height="78" filterUnits="userSpaceOnUse" color-interpolation-filters="sRGB">
<feFlood flood-opacity="0" result="BackgroundImageFix"/>
<feColorMatrix in="SourceAlpha" type="matrix" values="0 0 0 0 0 0 0 0 0 0 0 0 0 0 0 0 0 0 127 0"/>
<feOffset dy="4"/>
<feGaussianBlur stdDeviation="2"/>
<feColorMatrix type="matrix" values="0 0 0 0 0 0 0 0 0 0 0 0 0 0 0 0 0 0 0.25 0"/>
<feBlend mode="normal" in2="BackgroundImageFix" result="effect1_dropShadow"/>
<feBlend mode="normal" in="SourceGraphic" in2="effect1_dropShadow" result="shape"/>
</filter>
<radialGradient id="paint0_radial" cx="0" cy="0" r="1" gradientUnits="userSpaceOnUse" gradientTransform="translate(25 107) rotate(-40.6013) scale(115.244)">
<stop stop-color="#06DEFC"/>
<stop offset="0.475958" stop-color="#06D1EC"/>
<stop offset="1" stop-color="#06A3FC"/>
</radialGradient>
</defs>
</svg>
