<svg width="129" height="129" viewBox="0 0 80 80" fill="none" xmlns="http://www.w3.org/2000/svg">
<g id="rigoureux">
<circle id="Ellipse 54" cx="40" cy="40" r="40" fill="url(#paint0_radial)"/>
<g id="Calque 11" filter="url(#filter0_d)">
<g id="Group">
<path id="Vector" d="M30.6024 36.2873C21.5878 36.2873 14.252 30.3908 14.252 23.1422C14.252 15.8965 21.5878 10 30.6024 10C39.6205 10 46.9563 15.8965 46.9563 23.1422C46.9528 30.3908 39.6169 36.2873 30.6024 36.2873ZM30.6024 11.4862C22.6064 11.4862 16.0974 16.7152 16.0974 23.1451C16.0974 29.575 22.6028 34.8039 30.6024 34.8039C38.6019 34.8039 45.1073 29.5721 45.1073 23.1451C45.1073 16.7152 38.5983 11.4862 30.6024 11.4862Z" fill="#232020" stroke="white" stroke-width="3" stroke-miterlimit="10"/>
<path id="Vector_2" d="M39.1163 63.5673H10.9228C10.4117 63.5673 10 63.2363 10 62.8256V51.6802C10 42.3748 19.4191 34.8039 30.9961 34.8039C38.9708 34.8039 46.1576 38.3611 49.7528 44.0893C49.9834 44.4544 49.7989 44.9023 49.3446 45.0877C48.8868 45.2731 48.3331 45.1248 48.106 44.7597C44.8267 39.5364 38.2716 36.2901 30.9996 36.2901C20.4413 36.2901 11.8526 43.1936 11.8526 51.6802V62.0839H39.1198C39.6309 62.0839 40.0426 62.4148 40.0426 62.8256C40.039 63.2363 39.6274 63.5673 39.1163 63.5673Z" fill="#232020" stroke="white" stroke-width="3" stroke-miterlimit="10"/>
</g>
<g id="Group_2">
<g id="Group_3">
<path id="Vector_3" d="M53.8768 70C44.9865 70 37.75 64.1863 37.75 57.0404C37.75 49.8945 44.9829 44.0779 53.8768 44.0779C62.7672 44.0779 70.0001 49.8916 70.0001 57.0404C70.0001 64.1834 62.7672 70 53.8768 70ZM53.8768 44.7796C45.4692 44.7796 38.6266 50.2796 38.6266 57.0375C38.6266 63.7955 45.4692 69.2954 53.8768 69.2954C62.2845 69.2954 69.127 63.7955 69.127 57.0375C69.127 50.2796 62.2845 44.7796 53.8768 44.7796Z" fill="#232020" stroke="white" stroke-width="4" stroke-miterlimit="10"/>
</g>
</g>
<g id="Calque 11_2">
<g id="Group_4">
<path id="Vector_4" d="M54.0542 57.0518C54.0223 57.0518 53.9904 57.0461 53.9584 57.0346L46.4487 53.9966C46.3777 53.968 46.3315 53.9081 46.3315 53.8425C46.3315 53.7769 46.3812 53.7199 46.4522 53.6913L53.962 50.8643C54.0188 50.8415 54.0826 50.8415 54.1394 50.8643L61.6492 53.6913C61.7237 53.7199 61.7698 53.7769 61.7698 53.8425C61.7698 53.9081 61.7273 53.968 61.6527 53.9966L54.143 57.0346C54.1217 57.0461 54.0862 57.0518 54.0542 57.0518ZM47.0272 53.8511L54.0542 56.6923L61.0813 53.8511L54.0542 51.2038L47.0272 53.8511Z" fill="white" stroke="white"/>
<path id="Vector_5" d="M54.0542 58.9916C54.0223 58.9916 53.9904 58.9859 53.9584 58.9745L46.4487 55.9364C46.3777 55.9079 46.3315 55.848 46.3315 55.7824C46.3315 55.7167 46.3812 55.6597 46.4522 55.6312L48.0599 55.0264C48.1664 54.9865 48.2906 55.0235 48.3403 55.1091C48.39 55.1947 48.3438 55.2945 48.2374 55.3345L47.0201 55.7938L54.0472 58.635L61.0742 55.7938L59.8356 55.3259C59.7292 55.286 59.6866 55.1861 59.7327 55.1006C59.7824 55.015 59.9066 54.9808 60.0131 55.0178L61.6456 55.634C61.7202 55.6625 61.7663 55.7196 61.7663 55.7852C61.7663 55.8508 61.7237 55.9107 61.6492 55.9392L54.1394 58.9773C54.1217 58.9859 54.0862 58.9916 54.0542 58.9916Z" fill="white" stroke="white"/>
<path id="Vector_6" d="M54.0542 60.9114C54.0223 60.9114 53.9904 60.9057 53.9584 60.8943L46.4487 57.8562C46.3777 57.8277 46.3315 57.7678 46.3315 57.7022C46.3315 57.6366 46.3812 57.5795 46.4522 57.551L48.0599 56.9462C48.1664 56.9063 48.2906 56.9434 48.3403 57.0289C48.39 57.1145 48.3438 57.2144 48.2374 57.2543L47.0201 57.7136L54.0472 60.5548L61.0742 57.7136L59.8356 57.2457C59.7292 57.2058 59.6866 57.106 59.7327 57.0204C59.7824 56.9348 59.9066 56.8977 60.0131 56.9377L61.6456 57.551C61.7202 57.5795 61.7663 57.6366 61.7663 57.7022C61.7663 57.7678 61.7237 57.8277 61.6492 57.8562L54.1394 60.8943C54.1217 60.9057 54.0862 60.9114 54.0542 60.9114Z" fill="white" stroke="white"/>
<path id="Vector_7" d="M54.0542 63.0452C54.0223 63.0452 53.9904 63.0395 53.9584 63.0281L46.4487 59.99C46.3777 59.9615 46.3315 59.9016 46.3315 59.836C46.3315 59.7704 46.3812 59.7133 46.4522 59.6848L48.0599 59.08C48.1664 59.0401 48.2906 59.0772 48.3403 59.1627C48.39 59.2483 48.3438 59.3482 48.2374 59.3881L47.0201 59.8474L54.0472 62.6886L61.0742 59.8474L59.8356 59.3795C59.7292 59.3396 59.6866 59.2398 59.7327 59.1542C59.7824 59.0686 59.9066 59.0315 60.0131 59.0715L61.6456 59.6848C61.7202 59.7133 61.7663 59.7704 61.7663 59.836C61.7663 59.9016 61.7237 59.9615 61.6492 59.99L54.1394 63.0281C54.1217 63.0395 54.0862 63.0452 54.0542 63.0452Z" fill="white" stroke="white"/>
</g>
</g>
</g>
</g>
<defs>
<filter id="filter0_d" x="4.5" y="8.5" width="71.5001" height="71.5" filterUnits="userSpaceOnUse" color-interpolation-filters="sRGB">
<feFlood flood-opacity="0" result="BackgroundImageFix"/>
<feColorMatrix in="SourceAlpha" type="matrix" values="0 0 0 0 0 0 0 0 0 0 0 0 0 0 0 0 0 0 127 0"/>
<feOffset dy="4"/>
<feGaussianBlur stdDeviation="2"/>
<feColorMatrix type="matrix" values="0 0 0 0 0 0 0 0 0 0 0 0 0 0 0 0 0 0 0.25 0"/>
<feBlend mode="normal" in2="BackgroundImageFix" result="effect1_dropShadow"/>
<feBlend mode="normal" in="SourceGraphic" in2="effect1_dropShadow" result="shape"/>
</filter>
<radialGradient id="paint0_radial" cx="0" cy="0" r="1" gradientUnits="userSpaceOnUse" gradientTransform="translate(12.6667 67.3333) rotate(-40.6013) scale(76.8295)">
<stop stop-color="#06DEFC"/>
<stop offset="0.475958" stop-color="#06D1EC"/>
<stop offset="1" stop-color="#06A3FC"/>
</radialGradient>
</defs>
</svg>
