<svg width="122" height="120" viewBox="0 0 122 120" fill="none" xmlns="http://www.w3.org/2000/svg">
<circle cx="62" cy="60" r="60" fill="url(#paint0_radial)"/>
<g filter="url(#filter0_d)">
<path d="M94.0477 25H25.9523C25.4247 25 25 25.4315 25 25.9642V94.0358C25 94.5685 25.429 95 25.9523 95H94.0477C94.5753 95 95 94.5685 95 94.0358V25.9642C95 25.4315 94.5753 25 94.0477 25ZM93.0911 93.0716H26.9046V41.0085H93.0911V93.0716ZM93.0911 39.0757H26.9046V26.9284H93.0911V39.0757Z" fill="white"/>
<path d="M32.6143 36.2712C34.3431 36.2712 35.7501 34.8447 35.7501 33.0968C35.7501 31.3445 34.3431 29.9224 32.6143 29.9224C30.8855 29.9224 29.4785 31.3445 29.4785 33.0968C29.4785 34.8447 30.8855 36.2712 32.6143 36.2712ZM32.6143 31.8508C33.2921 31.8508 33.8412 32.4055 33.8412 33.0924C33.8412 33.7792 33.2921 34.334 32.6143 34.334C31.9365 34.334 31.3875 33.7792 31.3875 33.0924C31.3875 32.4099 31.9365 31.8508 32.6143 31.8508Z" fill="white"/>
<path d="M40.546 36.2712C42.2747 36.2712 43.6818 34.8447 43.6818 33.0968C43.6818 31.3445 42.2747 29.9224 40.546 29.9224C38.8172 29.9224 37.4102 31.3445 37.4102 33.0968C37.4102 34.8447 38.8129 36.2712 40.546 36.2712ZM40.546 31.8508C41.2237 31.8508 41.7728 32.4055 41.7728 33.0924C41.7728 33.7792 41.2237 34.334 40.546 34.334C39.8682 34.334 39.3191 33.7792 39.3191 33.0924C39.3148 32.4099 39.8682 31.8508 40.546 31.8508Z" fill="white"/>
<path d="M48.4734 36.2712C50.2022 36.2712 51.6092 34.8447 51.6092 33.0968C51.6092 31.3445 50.2022 29.9224 48.4734 29.9224C46.7447 29.9224 45.3376 31.3445 45.3376 33.0968C45.3376 34.8447 46.7447 36.2712 48.4734 36.2712ZM48.4734 31.8508C49.1512 31.8508 49.7003 32.4055 49.7003 33.0924C49.7003 33.7792 49.1512 34.334 48.4734 34.334C47.7957 34.334 47.2466 33.7792 47.2466 33.0924C47.2466 32.4099 47.7957 31.8508 48.4734 31.8508Z" fill="white"/>
<path d="M54.5348 80.5235L53.1535 80.8053C52.6387 80.911 52.2998 81.4173 52.4071 81.9412C52.4972 82.3991 52.8961 82.7161 53.3422 82.7161C53.4023 82.7161 53.4666 82.7117 53.531 82.6985L58.3569 81.7211C58.6572 81.6595 58.906 81.4613 59.0347 81.1795C59.1634 80.9022 59.1505 80.5764 59.0047 80.3078L56.6196 75.949C56.3665 75.4823 55.7831 75.315 55.3241 75.5704C54.8651 75.8302 54.6978 76.4157 54.9509 76.8824L56.1692 79.1146C54.5648 78.5291 53.0891 77.6089 51.8408 76.3893C46.9977 71.6519 46.8604 63.8105 51.5362 58.9058C53.3293 57.0258 55.6244 55.7887 58.1639 55.3264C58.683 55.2339 59.0261 54.732 58.936 54.2081C58.8417 53.6841 58.3526 53.3319 57.8293 53.4288C54.8908 53.9615 52.2397 55.3924 50.1635 57.5674C44.7541 63.2382 44.9129 72.3079 50.5153 77.7806C51.6992 78.9341 53.0591 79.8543 54.5348 80.5235Z" fill="white"/>
<path d="M62.4838 79.6607C61.9647 79.7531 61.6215 80.2551 61.7116 80.7834C61.7931 81.2501 62.1964 81.5803 62.6511 81.5803C62.7068 81.5803 62.7626 81.5759 62.8184 81.5671C65.7568 81.0343 68.4079 79.6035 70.4841 77.4285C75.8935 71.7577 75.7348 62.6879 70.1324 57.2152C68.9656 56.0749 67.6272 55.1679 66.1772 54.4987L67.6658 54.1993C68.1805 54.0937 68.5151 53.5873 68.4122 53.0634C68.3092 52.5395 67.8031 52.2049 67.2883 52.3061L62.458 53.2835C62.162 53.3452 61.9089 53.5433 61.7802 53.8251C61.7245 53.9484 61.7116 54.0761 61.7116 54.2037L61.7073 54.2125C61.6987 54.2522 61.7116 54.2874 61.7116 54.327C61.6945 54.6308 61.8146 54.9082 62.0333 55.1019L64.1997 59.06C64.3755 59.377 64.7016 59.5575 65.0362 59.5575C65.1906 59.5575 65.3493 59.5179 65.4994 59.4386C65.9627 59.1789 66.1257 58.5933 65.8726 58.1266L64.693 55.9649C66.2158 56.5548 67.6186 57.4442 68.8111 58.6109C73.6543 63.3483 73.7915 71.1897 69.1157 76.0944C67.3183 77.9612 65.0276 79.1984 62.4838 79.6607Z" fill="white"/>
</g>
<defs>
<filter id="filter0_d" x="21" y="25" width="78" height="78" filterUnits="userSpaceOnUse" color-interpolation-filters="sRGB">
<feFlood flood-opacity="0" result="BackgroundImageFix"/>
<feColorMatrix in="SourceAlpha" type="matrix" values="0 0 0 0 0 0 0 0 0 0 0 0 0 0 0 0 0 0 127 0"/>
<feOffset dy="4"/>
<feGaussianBlur stdDeviation="2"/>
<feColorMatrix type="matrix" values="0 0 0 0 0 0 0 0 0 0 0 0 0 0 0 0 0 0 0.25 0"/>
<feBlend mode="normal" in2="BackgroundImageFix" result="effect1_dropShadow"/>
<feBlend mode="normal" in="SourceGraphic" in2="effect1_dropShadow" result="shape"/>
</filter>
<radialGradient id="paint0_radial" cx="0" cy="0" r="1" gradientUnits="userSpaceOnUse" gradientTransform="translate(21 101) rotate(-40.6013) scale(115.244)">
<stop stop-color="#06DEFC"/>
<stop offset="0.475958" stop-color="#06D1EC"/>
<stop offset="1" stop-color="#06A3FC"/>
</radialGradient>
</defs>
</svg>
