<svg width="140" height="140" viewBox="0 0 140 140" fill="none" xmlns="http://www.w3.org/2000/svg">
<g id="site dynamique">
<g id="Ellipse 34" filter="url(#filter0_d)">
<circle cx="66" cy="66" r="60" fill="url(#paint0_radial)"/>
<circle cx="66" cy="66" r="57.5" stroke="#01FFF0" stroke-opacity="0.2" stroke-width="5"/>
</g>
<g id="Group" filter="url(#filter1_d)">
<path id="Vector" d="M98.0477 31H29.9523C29.4247 31 29 31.4315 29 31.9642V100.036C29 100.569 29.429 101 29.9523 101H98.0477C98.5753 101 99 100.569 99 100.036V31.9642C99 31.4315 98.5753 31 98.0477 31ZM97.0911 99.0716H30.9046V47.0085H97.0911V99.0716ZM97.0911 45.0757H30.9046V32.9284H97.0911V45.0757Z" fill="white"/>
<path id="Vector_2" d="M36.6143 42.2711C38.3431 42.2711 39.7501 40.8446 39.7501 39.0967C39.7501 37.3444 38.3431 35.9223 36.6143 35.9223C34.8855 35.9223 33.4785 37.3444 33.4785 39.0967C33.4785 40.8446 34.8855 42.2711 36.6143 42.2711ZM36.6143 37.8507C37.2921 37.8507 37.8412 38.4055 37.8412 39.0923C37.8412 39.7792 37.2921 40.3339 36.6143 40.3339C35.9365 40.3339 35.3875 39.7792 35.3875 39.0923C35.3875 38.4099 35.9365 37.8507 36.6143 37.8507Z" fill="white"/>
<path id="Vector_3" d="M44.546 42.2711C46.2747 42.2711 47.6818 40.8446 47.6818 39.0967C47.6818 37.3444 46.2747 35.9223 44.546 35.9223C42.8172 35.9223 41.4102 37.3444 41.4102 39.0967C41.4102 40.8446 42.8129 42.2711 44.546 42.2711ZM44.546 37.8507C45.2237 37.8507 45.7728 38.4055 45.7728 39.0923C45.7728 39.7792 45.2237 40.3339 44.546 40.3339C43.8682 40.3339 43.3191 39.7792 43.3191 39.0923C43.3148 38.4099 43.8682 37.8507 44.546 37.8507Z" fill="white"/>
<path id="Vector_4" d="M52.4734 42.2711C54.2022 42.2711 55.6092 40.8446 55.6092 39.0967C55.6092 37.3444 54.2022 35.9223 52.4734 35.9223C50.7447 35.9223 49.3376 37.3444 49.3376 39.0967C49.3376 40.8446 50.7447 42.2711 52.4734 42.2711ZM52.4734 37.8507C53.1512 37.8507 53.7003 38.4055 53.7003 39.0923C53.7003 39.7792 53.1512 40.3339 52.4734 40.3339C51.7957 40.3339 51.2466 39.7792 51.2466 39.0923C51.2466 38.4099 51.7957 37.8507 52.4734 37.8507Z" fill="white"/>
<path id="Vector_5" d="M58.5348 86.5236L57.1535 86.8054C56.6387 86.911 56.2998 87.4174 56.4071 87.9413C56.4972 88.3992 56.8961 88.7162 57.3422 88.7162C57.4023 88.7162 57.4666 88.7118 57.531 88.6986L62.3569 87.7212C62.6572 87.6595 62.906 87.4614 63.0347 87.1796C63.1634 86.9022 63.1505 86.5764 63.0047 86.3079L60.6196 81.9491C60.3665 81.4824 59.7831 81.3151 59.3241 81.5705C58.8651 81.8302 58.6978 82.4158 58.9509 82.8825L60.1692 85.1147C58.5648 84.5291 57.0891 83.6089 55.8408 82.3894C50.9977 77.652 50.8604 69.8106 55.5362 64.9059C57.3293 63.0259 59.6244 61.7887 62.1639 61.3264C62.683 61.234 63.0261 60.7321 62.936 60.2081C62.8417 59.6842 62.3526 59.332 61.8293 59.4288C58.8908 59.9616 56.2397 61.3924 54.1635 63.5674C48.7541 69.2382 48.9129 78.308 54.5153 83.7807C55.6992 84.9342 57.0591 85.8544 58.5348 86.5236Z" fill="white"/>
<path id="Vector_6" d="M66.4838 85.6607C65.9647 85.7531 65.6215 86.255 65.7116 86.7834C65.7931 87.2501 66.1964 87.5803 66.6511 87.5803C66.7068 87.5803 66.7626 87.5759 66.8184 87.5671C69.7568 87.0343 72.4079 85.6034 74.4841 83.4284C79.8935 77.7576 79.7348 68.6879 74.1324 63.2152C72.9656 62.0749 71.6272 61.1679 70.1772 60.4987L71.6658 60.1993C72.1805 60.0936 72.5151 59.5873 72.4122 59.0634C72.3092 58.5394 71.8031 58.2048 71.2883 58.3061L66.458 59.2835C66.162 59.3452 65.9089 59.5433 65.7802 59.825C65.7245 59.9483 65.7116 60.076 65.7116 60.2037L65.7073 60.2125C65.6987 60.2521 65.7116 60.2873 65.7116 60.327C65.6945 60.6308 65.8146 60.9081 66.0333 61.1019L68.1997 65.06C68.3755 65.377 68.7016 65.5575 69.0362 65.5575C69.1906 65.5575 69.3493 65.5179 69.4994 65.4386C69.9627 65.1788 70.1257 64.5933 69.8726 64.1266L68.693 61.9648C70.2158 62.5548 71.6186 63.4442 72.8111 64.6109C77.6543 69.3483 77.7915 77.1897 73.1157 82.0944C71.3183 83.9612 69.0276 85.1984 66.4838 85.6607Z" fill="white"/>
</g>
</g>
<defs>
<filter id="filter0_d" x="0" y="0" width="140" height="140" filterUnits="userSpaceOnUse" color-interpolation-filters="sRGB">
<feFlood flood-opacity="0" result="BackgroundImageFix"/>
<feColorMatrix in="SourceAlpha" type="matrix" values="0 0 0 0 0 0 0 0 0 0 0 0 0 0 0 0 0 0 127 0"/>
<feOffset dx="4" dy="4"/>
<feGaussianBlur stdDeviation="5"/>
<feColorMatrix type="matrix" values="0 0 0 0 0 0 0 0 0 0 0 0 0 0 0 0 0 0 0.25 0"/>
<feBlend mode="normal" in2="BackgroundImageFix" result="effect1_dropShadow"/>
<feBlend mode="normal" in="SourceGraphic" in2="effect1_dropShadow" result="shape"/>
</filter>
<filter id="filter1_d" x="25" y="31" width="78" height="78" filterUnits="userSpaceOnUse" color-interpolation-filters="sRGB">
<feFlood flood-opacity="0" result="BackgroundImageFix"/>
<feColorMatrix in="SourceAlpha" type="matrix" values="0 0 0 0 0 0 0 0 0 0 0 0 0 0 0 0 0 0 127 0"/>
<feOffset dy="4"/>
<feGaussianBlur stdDeviation="2"/>
<feColorMatrix type="matrix" values="0 0 0 0 0 0 0 0 0 0 0 0 0 0 0 0 0 0 0.25 0"/>
<feBlend mode="normal" in2="BackgroundImageFix" result="effect1_dropShadow"/>
<feBlend mode="normal" in="SourceGraphic" in2="effect1_dropShadow" result="shape"/>
</filter>
<radialGradient id="paint0_radial" cx="0" cy="0" r="1" gradientUnits="userSpaceOnUse" gradientTransform="translate(25 107) rotate(-40.6013) scale(115.244)">
<stop stop-color="#06DEFC"/>
<stop offset="0.475958" stop-color="#06D1EC"/>
<stop offset="1" stop-color="#06A3FC"/>
</radialGradient>
</defs>
</svg>
