<svg width="80" height="80" viewBox="0 0 80 80" fill="none" xmlns="http://www.w3.org/2000/svg">
<circle cx="40" cy="40" r="40" fill="#575958"/>
<path d="M54.4614 22.596C56.3524 20.8884 56.389 18.0857 54.5465 16.3368C52.704 14.5861 49.6804 14.5506 47.7917 16.2561C45.9027 17.9619 45.8601 20.7611 47.7046 22.5099C49.5412 24.2625 52.5705 24.298 54.4614 22.596Z" fill="url(#paint0_linear)"/>
<path d="M59.8091 60.7299C59.3318 59.7694 58.1062 59.3461 57.0625 59.7899C54.9916 60.6718 52.8031 61.8158 49.545 60.7036L44.307 58.9081L47.3953 48.3293C47.6704 47.3857 47.4096 46.3765 46.7019 45.6519L40.135 38.9187L44.5075 34.9757L45.1708 36.9642C45.4276 37.7375 46.0908 38.3386 46.9303 38.5614L55.1899 40.7537C56.5552 41.117 57.995 40.3907 58.3913 39.1118C58.7855 37.8386 57.9909 36.5109 56.6175 36.148L49.7052 34.3129L48.6613 31.1861C50.0528 29.7049 50.0247 27.4676 48.5197 26.0373L47.2943 24.8726C46.7421 24.3483 45.8179 23.9121 45.3566 23.8036L35.2263 21.3993C34.3042 21.1785 33.3191 21.4499 32.6762 22.1014L26.5806 28.2521C25.6139 29.2277 25.6847 30.7422 26.7384 31.6372C27.79 32.5341 29.4324 32.4629 30.3948 31.4912L35.4428 26.3986L38.8162 27.2L31.6084 33.7007C30.4091 34.6928 29.4967 35.9697 30.134 37.3722L32.9835 43.6504L19.1644 50.2951L19.0146 50.2446C15.7605 49.1266 14.905 46.94 13.9525 45.0226C13.4752 44.0621 12.2496 43.639 11.206 44.0827C10.1667 44.5245 9.71137 45.6632 10.1908 46.6254C11.1433 48.5427 12.5933 52.132 17.5787 53.8396L48.1094 64.2984C53.0927 66.0136 56.7229 64.1543 58.794 63.2725C59.8335 62.8306 60.2886 61.6921 59.8091 60.7299ZM38.3876 47.5354C38.7983 47.339 39.1218 47.0543 39.3887 46.7358L40.9561 48.3425L38.4526 56.9029L27.0279 52.9897L38.3876 47.5354Z" fill="url(#paint1_linear)"/>
<defs>
<linearGradient id="paint0_linear" x1="51.126" y1="15" x2="51.126" y2="23.8488" gradientUnits="userSpaceOnUse">
<stop stop-color="#0587FF"/>
<stop offset="0.760417" stop-color="#01D6FF"/>
<stop offset="1" stop-color="#00B2FF"/>
</linearGradient>
<linearGradient id="paint1_linear" x1="35" y1="21.3237" x2="35" y2="65" gradientUnits="userSpaceOnUse">
<stop stop-color="#0587FF"/>
<stop offset="0.760417" stop-color="#01D6FF"/>
<stop offset="1" stop-color="#00B2FF"/>
</linearGradient>
</defs>
</svg>
