<svg width="40" height="32" viewBox="0 0 40 32" fill="none" xmlns="http://www.w3.org/2000/svg">
<g filter="url(#filter0_d)">
<path d="M36 21.9618L32.8059 19.5967C33.3528 18.9547 33.6697 18.1953 33.6697 17.3819C33.6697 15.0865 31.1479 13.219 28.0481 13.219C24.9482 13.219 22.4265 15.0865 22.4265 17.3819C22.4265 19.6771 24.9482 21.5446 28.0481 21.5446C29.1465 21.5446 30.1724 21.3097 31.0391 20.9048L34.2332 23.27L36 21.9618ZM28.0481 19.6944C26.3259 19.6944 24.9251 18.6569 24.9251 17.3819C24.9251 16.1067 26.3259 15.0691 28.0481 15.0691C29.7703 15.0691 31.1711 16.1067 31.1711 17.3819C31.1711 18.6569 29.7703 19.6944 28.0481 19.6944ZM21.4263 20.8583H7.7478C7.05884 20.8583 6.49853 20.4433 6.49853 19.9333V10.1276H18.7412V12.4402H21.2398V10.1276H33.4824V12.918C34.7197 13.7447 35.6125 14.8488 35.981 16.0965V6.47544C35.981 4.94513 34.2996 3.70026 32.2332 3.70026H25.6074V2.77519C25.6074 1.24487 23.9263 0 21.8596 0H18.1211C16.0547 0 14.3735 1.24487 14.3735 2.77519V3.70026H7.7478C5.68115 3.70026 4 4.94513 4 6.47544V19.9333C4 21.4634 5.68115 22.7083 7.7478 22.7083H24.2844C23.1465 22.2657 22.1667 21.6294 21.4263 20.8583ZM16.8718 2.77519C16.8718 2.26502 17.4324 1.85013 18.1211 1.85013H21.8596C22.5486 1.85013 23.1089 2.26502 23.1089 2.77519V3.70026H16.8718V2.77519ZM6.49853 6.47544C6.49853 5.9653 7.05884 5.54857 7.7478 5.54857H32.2332C32.9219 5.54857 33.4824 5.9653 33.4824 6.47544V8.27751H6.49853V6.47544Z" fill="url(#paint0_linear)"/>
</g>
<defs>
<filter id="filter0_d" x="0" y="0" width="40" height="31.27" filterUnits="userSpaceOnUse" color-interpolation-filters="sRGB">
<feFlood flood-opacity="0" result="BackgroundImageFix"/>
<feColorMatrix in="SourceAlpha" type="matrix" values="0 0 0 0 0 0 0 0 0 0 0 0 0 0 0 0 0 0 127 0"/>
<feOffset dy="4"/>
<feGaussianBlur stdDeviation="2"/>
<feColorMatrix type="matrix" values="0 0 0 0 0 0 0 0 0 0 0 0 0 0 0 0 0 0 0.25 0"/>
<feBlend mode="normal" in2="BackgroundImageFix" result="effect1_dropShadow"/>
<feBlend mode="normal" in="SourceGraphic" in2="effect1_dropShadow" result="shape"/>
</filter>
<linearGradient id="paint0_linear" x1="4" y1="11.635" x2="36" y2="11.635" gradientUnits="userSpaceOnUse">
<stop stop-color="#01D6FF"/>
<stop offset="1" stop-color="#009EFD"/>
</linearGradient>
</defs>
</svg>
