<svg width="90" height="90" viewBox="0 0 90 90" fill="none" xmlns="http://www.w3.org/2000/svg">
<path d="M75 62.7514L69.1109 58.6857C70.1192 57.5822 70.7035 56.2767 70.7035 54.8786C70.7035 50.933 66.054 47.7229 60.3387 47.7229C54.6233 47.7229 49.9739 50.933 49.9739 54.8786C49.9739 58.824 54.6233 62.0341 60.3387 62.0341C62.3638 62.0341 64.2553 61.6305 65.8533 60.9344L71.7424 65L75 62.7514ZM60.3387 58.8539C57.1634 58.8539 54.5806 57.0704 54.5806 54.8786C54.5806 52.6866 57.1634 50.9031 60.3387 50.9031C63.5139 50.9031 66.0968 52.6866 66.0968 54.8786C66.0968 57.0704 63.5139 58.8539 60.3387 58.8539ZM48.1297 60.8545H22.91C21.6397 60.8545 20.6067 60.141 20.6067 59.2644V42.4089H43.1791V46.3841H47.7858V42.4089H70.3582V47.2054C72.6395 48.6265 74.2856 50.5243 74.9649 52.6692V36.131C74.9649 33.5004 71.8648 31.3606 68.0549 31.3606H55.8387V29.7704C55.8387 27.1399 52.7391 25 48.9287 25H42.0358C38.2258 25 35.1262 27.1399 35.1262 29.7704V31.3606H22.91C19.0996 31.3606 16 33.5004 16 36.131V59.2644C16 61.8946 19.0996 64.0345 22.91 64.0345H53.3994C51.3013 63.2737 49.4949 62.1799 48.1297 60.8545V60.8545ZM39.7324 29.7704C39.7324 28.8935 40.7659 28.1803 42.0358 28.1803H48.9287C50.199 28.1803 51.232 28.8935 51.232 29.7704V31.3606H39.7324V29.7704ZM20.6067 36.131C20.6067 35.254 21.6397 34.5377 22.91 34.5377H68.0549C69.3247 34.5377 70.3582 35.254 70.3582 36.131V39.2286H20.6067V36.131Z" fill="url(#paint0_linear)"/>
<defs>
<linearGradient id="paint0_linear" x1="16" y1="25" x2="16" y2="60.5" gradientUnits="userSpaceOnUse">
<stop stop-color="#06A3FC"/>
<stop offset="1" stop-color="#06DEFC"/>
</linearGradient>
</defs>
</svg>
