<svg width="90" height="100" viewBox="0 0 90 100" fill="none" xmlns="http://www.w3.org/2000/svg">
<g id="swift 1">
<path id="Vector" d="M90 41.6667C90 51.1717 86.5634 59.9337 80.7741 66.9457C80.3002 67.5205 79.8098 68.0833 79.3048 68.6345C71.0505 77.6277 58.7443 83.3333 45 83.3333C20.1472 83.3333 0 64.6785 0 41.6667C0 31.5765 3.87369 22.3215 10.3224 15.1123C10.3885 15.0358 10.4565 14.9609 10.5226 14.8878C18.7787 5.78565 31.1602 0 45 0C69.8528 0 90 18.6548 90 41.6667Z" fill="#FE4216"/>
<path id="Vector_2" d="M80.7741 66.9455C80.3001 67.5205 79.8096 68.0832 79.3047 68.6343C77.7067 66.2585 75.1997 63.9098 71.4396 63.4983C63.4296 62.619 60.3752 67.5953 51.9465 68.5713C19.0726 72.4727 1.83667 46.4235 1.83667 46.4235C15.7573 56.284 34.8318 58.5577 47.1232 51.2892C47.0792 51.262 47.0349 51.233 46.9927 51.2058C31.0095 40.7687 14.2162 20.0543 10.3223 15.1122C9.77494 14.4166 9.48296 14.0339 9.48296 14.0339C9.8282 14.3196 10.1754 14.6036 10.5225 14.8876C25.2329 26.8825 41.7249 36.4725 41.7249 36.4725C29.0754 24.7602 19.2268 10.357 19.0726 10.1342C35.9319 27.2057 57.846 39.3997 57.846 39.3997C64.8623 19.7193 50.4441 4.44393 50.2621 4.25171C50.4623 4.35376 67.3659 13.1581 73.5465 30.2295C76.4687 38.301 75.7119 45.3163 74.0901 50.4847V50.4862C79.6959 56.2227 81.0862 62.8485 80.7741 66.9455Z" fill="#F2F2F2"/>
</g>
</svg>
