<svg width="90" height="90" viewBox="0 0 90 90" fill="none" xmlns="http://www.w3.org/2000/svg">
<path d="M66.3597 49.2833C63.0922 47.068 59.1925 45.4374 54.9371 44.4667C58.8614 42.5003 61.4113 39.342 61.4113 35.7873C61.4114 29.8391 54.2737 25 45.5001 25C36.7264 25 29.5887 29.8391 29.5887 35.7873C29.5887 39.3421 32.1386 42.5004 36.0629 44.4667C31.8075 45.4373 27.908 47.068 24.6403 49.2833C19.0686 53.0608 16 58.0833 16 63.4255C16 64.2951 17.0398 65 18.3224 65H72.6776C73.9602 65 75 64.2951 75 63.4255C75.0001 58.0833 71.9315 53.0608 66.3597 49.2833ZM34.2338 35.7873C34.2338 31.5755 39.2878 28.1491 45.5002 28.1491C51.7126 28.1491 56.7665 31.5755 56.7665 35.7873C56.7665 39.999 51.7126 43.4254 45.5002 43.4254C39.2878 43.4255 34.2338 39.999 34.2338 35.7873ZM20.7526 61.8509C21.9273 53.2947 32.578 46.5745 45.5001 46.5745C58.4221 46.5745 69.0728 53.2946 70.2475 61.8509H20.7526V61.8509Z" fill="url(#paint0_linear)"/>
<defs>
<linearGradient id="paint0_linear" x1="45.5" y1="25" x2="45.5" y2="65" gradientUnits="userSpaceOnUse">
<stop stop-color="#06A3FC"/>
<stop offset="1" stop-color="#06DEFC"/>
</linearGradient>
</defs>
</svg>
