<svg width="79" height="96" viewBox="0 0 79 96" fill="none" xmlns="http://www.w3.org/2000/svg">
<g id="windows 1">
<path id="Vector" d="M39.5 80C61.3153 80 79 62.0914 79 40C79 17.9086 61.3153 0 39.5 0C17.6848 0 0 17.9086 0 40C0 62.0914 17.6848 80 39.5 80Z" fill="#5D5E60"/>
<path id="Vector_2" d="M36.9097 13.4085V37.9016C36.9097 38.1914 37.1415 38.4262 37.4277 38.4262H70.5738C70.8599 38.4262 71.0919 38.1915 71.0919 37.9016V8.52455C71.0919 8.37216 71.0266 8.22741 70.9128 8.12778C70.7992 8.02816 70.6487 7.98365 70.4992 8.00541L37.353 12.8893C37.0983 12.927 36.9097 13.1481 36.9097 13.4085Z" fill="#73A1FB"/>
<path id="Vector_3" d="M33.2837 66.7432C33.4084 66.7432 33.5295 66.6978 33.6245 66.6139C33.7372 66.5142 33.8018 66.3699 33.8018 66.2186V42.0981C33.8018 41.8083 33.57 41.5734 33.2837 41.5734H8.43701C8.29963 41.5734 8.16779 41.6288 8.07066 41.727C7.9735 41.8254 7.91895 41.9589 7.91895 42.0981L7.92018 62.7704C7.92018 63.0325 8.11139 63.2546 8.36778 63.2904L33.2132 66.7389C33.2368 66.7414 33.2603 66.7432 33.2837 66.7432Z" fill="#73A1FB"/>
<path id="Vector_4" d="M8.44056 38.4254H33.2837C33.5698 38.4254 33.8018 38.1907 33.8018 37.9008V14.0174C33.8018 13.8659 33.7372 13.7219 33.6247 13.6223C33.512 13.5227 33.3633 13.4769 33.2142 13.4977L8.34835 16.9173C8.09111 16.9528 7.89965 17.175 7.8999 17.4376L7.9225 37.9013C7.92286 38.1909 8.1548 38.4254 8.44056 38.4254Z" fill="#73A1FB"/>
<path id="Vector_5" d="M70.5735 72C70.6977 72 70.8184 71.9549 70.9134 71.8715C71.0265 71.7718 71.0916 71.6275 71.0916 71.4754L71.0998 42.0981C71.0998 41.9592 71.0453 41.8254 70.9482 41.727C70.851 41.6286 70.7192 41.5734 70.5818 41.5734H37.4273C37.1412 41.5734 36.9094 41.8082 36.9094 42.0981V66.7533C36.9094 67.0147 37.0995 67.2363 37.3551 67.2728L70.5012 71.995C70.5255 71.9984 70.5494 72 70.5735 72Z" fill="#73A1FB"/>
<path id="Vector_6" d="M58.46 64C67.186 64 74.26 71.1635 74.26 80C74.26 88.8365 67.186 96 58.46 96C49.734 96 42.66 88.8365 42.66 80C42.6352 71.1886 49.6689 64.0253 58.3701 64C58.4001 64 58.43 64 58.46 64Z" fill="#3BB54A"/>
<path id="Vector_7" d="M67.2126 75.5906L55.9912 86.9541L49.707 80.636L52.2655 78.0906L55.9912 81.8178L64.6541 73.0451L67.2126 75.5906Z" fill="#D4E1F4"/>
</g>
</svg>
